<svg width="161" height="65" viewBox="0 0 161 65" fill="none" xmlns="http://www.w3.org/2000/svg">
<path d="M0.111328 29.0694V0.444336H9.67059C12.9911 0.444336 15.7377 1.03844 17.9007 2.22174C20.0636 3.40995 21.6724 5.06952 22.722 7.21026C23.7716 9.351 24.2964 11.8649 24.2964 14.7569C24.2964 17.6488 23.7716 20.1627 22.722 22.3035C21.6724 24.4442 20.0735 26.1087 17.9203 27.292C15.7671 28.4802 13.0205 29.0694 9.67059 29.0694H0.111328ZM5.62421 24.3264H9.38121C11.7208 24.3264 13.5698 23.9434 14.9186 23.1824C16.2674 22.4213 17.2287 21.3215 17.7977 19.8927C18.3666 18.4639 18.656 16.7503 18.656 14.7618C18.656 12.7732 18.3715 11.0204 17.7977 9.58668C17.2238 8.15788 16.2674 7.05805 14.9186 6.29701C13.5698 5.53596 11.7257 5.15299 9.38121 5.15299H5.62421V24.3313V24.3264Z" fill="white"/>
<path d="M25.6006 29.0697V8.46264H30.5004L31.0301 12.2679C31.5206 11.3693 32.1386 10.6034 32.889 9.97983C33.6394 9.35135 34.4977 8.86036 35.4639 8.50684C36.4302 8.15332 37.4994 7.97656 38.6716 7.97656V13.8243H36.7931C35.974 13.8243 35.2187 13.9176 34.5271 14.1091C33.8307 14.3006 33.2274 14.605 32.7075 15.0273C32.1925 15.4495 31.7952 16.0289 31.5255 16.7654C31.2508 17.5019 31.1184 18.4299 31.1184 19.5444V29.0697H25.6055H25.6006Z" fill="white"/>
<path d="M39.8981 29.2706C38.8632 29.2706 38.0343 28.9662 37.4065 28.3524C36.7787 27.7387 36.4648 26.9825 36.4648 26.084C36.4648 25.1855 36.7787 24.4294 37.4065 23.8156C38.0343 23.2019 38.8632 22.8975 39.8981 22.8975C40.8791 22.8975 41.6834 23.2019 42.3063 23.8156C42.9341 24.4294 43.248 25.1855 43.248 26.084C43.248 26.9825 42.9341 27.7387 42.3063 28.3524C41.6785 28.9662 40.8742 29.2706 39.8981 29.2706Z" fill="white"/>
<path d="M0.111328 63.7481V35.123H18.7394V39.5813H5.62912V47.2261H16.1252V51.5616H5.62912V63.7481H0.11623H0.111328Z" fill="white"/>
<path d="M24.62 64.2395C22.9033 64.2395 21.4859 63.9596 20.3725 63.3999C19.2542 62.8402 18.4302 62.0939 17.9005 61.1511C17.3708 60.2084 17.106 59.1675 17.106 58.0235C17.106 56.7715 17.4248 55.6667 18.0673 54.7093C18.7049 53.7567 19.676 53.0055 20.966 52.4605C22.2608 51.9155 23.8843 51.6406 25.8461 51.6406H30.9519C30.9519 50.634 30.8146 49.7944 30.5448 49.1267C30.2702 48.4589 29.8484 47.963 29.2794 47.634C28.7056 47.3051 27.9453 47.143 26.9938 47.143C25.9589 47.143 25.081 47.3689 24.36 47.8157C23.639 48.2674 23.1976 48.9548 23.0308 49.8828H17.6798C17.8171 48.4098 18.2978 47.1381 19.1316 46.0579C19.9605 44.9826 21.0641 44.143 22.4423 43.544C23.8156 42.945 25.3508 42.6455 27.038 42.6455C28.9704 42.6455 30.6478 42.9745 32.0604 43.6275C33.4729 44.2805 34.5667 45.2232 35.3269 46.4507C36.0871 47.6782 36.4697 49.1905 36.4697 50.9875V63.7436H31.8152L31.2021 60.5963C30.9029 61.1413 30.5497 61.6323 30.1378 62.0693C29.7307 62.5063 29.2549 62.8893 28.7105 63.2133C28.1661 63.5423 27.553 63.7927 26.8712 63.9695C26.1895 64.1462 25.439 64.2346 24.6249 64.2346L24.62 64.2395ZM25.9246 59.9875C26.6309 59.9875 27.2636 59.8598 27.8227 59.5996C28.3819 59.3394 28.8625 58.9858 29.2745 58.5341C29.6865 58.0824 30.0053 57.5669 30.2358 56.9826C30.4664 56.3983 30.6233 55.7649 30.7067 55.0824V55.0432H26.4985C25.6548 55.0432 24.9682 55.1463 24.4336 55.3476C23.9039 55.5538 23.5164 55.8435 23.2712 56.2265C23.0259 56.6094 22.9033 57.0464 22.9033 57.5374C22.9033 58.0824 23.0259 58.5341 23.2712 58.8876C23.5164 59.2412 23.8695 59.5161 24.3355 59.7076C24.7965 59.8991 25.3311 59.9924 25.9295 59.9924L25.9246 59.9875Z" fill="white"/>
<path d="M46.7595 64.2396C44.881 64.2396 43.2477 63.9401 41.8597 63.341C40.4717 62.742 39.3828 61.9122 38.5932 60.8468C37.8035 59.7862 37.3523 58.5833 37.2444 57.2478H42.718C42.8554 57.7633 43.0859 58.2347 43.4145 58.6569C43.7431 59.0792 44.1747 59.4131 44.7192 59.6586C45.2636 59.9041 45.9159 60.0268 46.681 60.0268C47.4462 60.0268 48.0151 59.9237 48.4762 59.7224C48.9372 59.5162 49.2854 59.2363 49.5159 58.8828C49.7465 58.5293 49.8642 58.161 49.8642 57.7781C49.8642 57.2036 49.7023 56.7617 49.3737 56.4475C49.0451 56.1332 48.5693 55.8828 47.9464 55.6913C47.3186 55.4998 46.5584 55.3083 45.6609 55.1169C44.6799 54.9254 43.7186 54.6848 42.7818 54.4C41.8401 54.1152 41.0063 53.7519 40.2706 53.3149C39.5349 52.8779 38.9512 52.3182 38.5147 51.6357C38.0782 50.9532 37.8624 50.1087 37.8624 49.1022C37.8624 47.8747 38.191 46.7798 38.8433 45.8076C39.4956 44.8403 40.4521 44.0695 41.7028 43.495C42.9535 42.9205 44.4641 42.6357 46.2347 42.6357C48.7116 42.6357 50.6735 43.1955 52.1154 44.31C53.5574 45.4295 54.4157 46.9663 54.6904 48.9303H49.5012C49.3394 48.3018 48.9764 47.8059 48.4173 47.4377C47.8582 47.0694 47.1176 46.8878 46.1906 46.8878C45.2096 46.8878 44.4592 47.0645 43.9442 47.418C43.4292 47.7716 43.1693 48.238 43.1693 48.8076C43.1693 49.1905 43.3409 49.5293 43.6794 49.8288C44.0178 50.1283 44.5033 50.3787 45.1311 50.585C45.7589 50.7912 46.5192 50.9876 47.4167 51.1791C48.9961 51.508 50.3841 51.8812 51.5857 52.3034C52.7825 52.7257 53.7242 53.3247 54.4059 54.1005C55.0877 54.8763 55.4261 56.0006 55.4261 57.4736C55.4261 58.7797 55.073 59.9483 54.3618 60.9695C53.6506 61.9908 52.655 62.7911 51.3601 63.3607C50.0653 63.9302 48.535 64.2199 46.7644 64.2199L46.7595 64.2396Z" fill="white"/>
<path d="M65.466 63.7485C64.024 63.7485 62.7635 63.5226 61.6893 63.0709C60.6152 62.6192 59.7765 61.8728 59.1781 60.8221C58.5798 59.7714 58.2806 58.3328 58.2806 56.5063V47.7567H54.7688V43.1364H58.2806L58.8937 37.5342H63.7934V43.1364H69.2279V47.7567H63.7934V56.5897C63.7934 57.5177 63.9994 58.156 64.4065 58.5095C64.8136 58.863 65.5101 59.0398 66.491 59.0398H69.1886V63.7435H65.4709L65.466 63.7485Z" fill="white"/>
<path d="M79.8861 63.7485C78.4441 63.7485 77.1836 63.5226 76.1095 63.0709C75.0354 62.6192 74.1967 61.8728 73.5983 60.8221C72.9999 59.7714 72.7007 58.3328 72.7007 56.5063V47.7567H69.189V43.1364H72.7007L73.3138 37.5342H78.2136V43.1364H83.648V47.7567H78.2136V56.5897C78.2136 57.5177 78.4196 58.156 78.8267 58.5095C79.2338 58.863 79.9303 59.0398 80.9112 59.0398H83.6088V63.7435H79.891L79.8861 63.7485Z" fill="white"/>
<path d="M85.0312 63.7485V43.1414H89.931L90.4608 46.9466C90.9512 46.0481 91.5692 45.2821 92.3196 44.6585C93.07 44.0301 93.9284 43.5391 94.8946 43.1855C95.8608 42.832 96.9301 42.6553 98.1023 42.6553V48.503H96.2238C95.4047 48.503 94.6494 48.6012 93.9578 48.7878C93.2613 48.9793 92.6581 49.2837 92.1382 49.706C91.6232 50.1282 91.2259 50.7076 90.9512 51.4441C90.6766 52.1806 90.5441 53.1086 90.5441 54.2231V63.7485H85.0312Z" fill="white"/>
<path d="M105.415 64.2395C103.698 64.2395 102.286 63.9596 101.167 63.3999C100.049 62.8402 99.2251 62.0939 98.6954 61.1511C98.1657 60.2084 97.9009 59.1675 97.9009 58.0235C97.9009 56.7715 98.2197 55.6667 98.8622 54.7093C99.4998 53.7567 100.471 53.0055 101.761 52.4605C103.056 51.9155 104.679 51.6406 106.641 51.6406H111.747C111.747 50.634 111.61 49.7944 111.34 49.1267C111.065 48.4589 110.643 47.963 110.074 47.634C109.5 47.3051 108.74 47.143 107.789 47.143C106.754 47.143 105.876 47.3689 105.155 47.8157C104.434 48.2674 103.993 48.9548 103.826 49.8828H98.4747C98.6121 48.4098 99.0927 47.1381 99.9265 46.0579C100.755 44.9826 101.859 44.143 103.237 43.544C104.611 42.945 106.146 42.6455 107.833 42.6455C109.765 42.6455 111.443 42.9745 112.855 43.6275C114.268 44.2805 115.362 45.2232 116.122 46.4507C116.882 47.6782 117.265 49.1905 117.265 50.9875V63.7436H112.61L111.997 60.5963C111.698 61.1413 111.345 61.6323 110.933 62.0693C110.526 62.5063 110.05 62.8893 109.505 63.2133C108.961 63.5423 108.348 63.7927 107.666 63.9695C106.984 64.1462 106.239 64.2346 105.42 64.2346L105.415 64.2395ZM106.724 59.9875C107.431 59.9875 108.063 59.8598 108.623 59.5996C109.182 59.3394 109.662 58.9858 110.074 58.5341C110.481 58.0824 110.8 57.5669 111.036 56.9826C111.266 56.3983 111.423 55.7649 111.507 55.0824V55.0432H107.298C106.455 55.0432 105.768 55.1463 105.233 55.3476C104.704 55.5538 104.316 55.8435 104.071 56.2265C103.826 56.6094 103.703 57.0464 103.703 57.5374C103.703 58.0824 103.826 58.5341 104.071 58.8876C104.316 59.2412 104.669 59.5161 105.135 59.7076C105.596 59.8991 106.131 59.9924 106.729 59.9924L106.724 59.9875Z" fill="white"/>
<path d="M129.105 64.2395C127.035 64.2395 125.196 63.7779 123.592 62.85C121.983 61.922 120.732 60.6552 119.835 59.0447C118.937 57.4343 118.486 55.598 118.486 53.526C118.486 51.454 118.937 49.5243 119.835 47.904C120.732 46.2838 121.988 45.0023 123.592 44.0595C125.196 43.1168 127.035 42.6504 129.105 42.6504C131.743 42.6504 133.965 43.3476 135.76 44.7371C137.556 46.1266 138.703 48.0366 139.194 50.4621H133.352C133.107 49.5096 132.597 48.7584 131.822 48.2134C131.047 47.6684 130.125 47.3934 129.066 47.3934C128.114 47.3934 127.261 47.634 126.51 48.1103C125.76 48.5865 125.176 49.2837 124.754 50.197C124.332 51.1102 124.122 52.1954 124.122 53.4474C124.122 54.3999 124.244 55.2543 124.489 56.0055C124.735 56.7567 125.073 57.395 125.51 57.9253C125.946 58.4555 126.471 58.8582 127.084 59.1331C127.697 59.4081 128.354 59.5407 129.066 59.5407C129.777 59.5407 130.419 59.4179 131.008 59.1724C131.591 58.9269 132.092 58.5783 132.499 58.1315C132.906 57.6798 133.195 57.1299 133.357 56.4768H139.199C138.708 58.8483 137.556 60.7387 135.746 62.138C133.936 63.5423 131.724 64.2444 129.11 64.2444L129.105 64.2395Z" fill="white"/>
<path d="M140.665 63.7487V34.3086H146.178V63.7487H140.665ZM154.143 63.7487L145.359 52.4607L153.241 43.1367H159.735L149.562 54.7929V50.4182L161 63.7487H154.138H154.143Z" fill="white"/>
</svg>
