<svg width="161" height="64" viewBox="0 0 161 64" fill="none" xmlns="http://www.w3.org/2000/svg">
<path d="M0.444092 28.7147V0H9.95053C13.2527 0 15.9841 0.595963 18.1352 1.78297C20.2862 2.9749 21.886 4.63966 22.9298 6.78711C23.9736 8.93455 24.4955 11.4563 24.4955 14.3573C24.4955 17.2584 23.9736 19.7801 22.9298 21.9276C21.886 24.075 20.2959 25.7447 18.1547 26.9317C16.0134 28.1236 13.2819 28.7147 9.95053 28.7147H0.444092ZM5.92651 23.9568H9.66276C11.9894 23.9568 13.8282 23.5726 15.1696 22.8092C16.5109 22.0458 17.4669 20.9425 18.0327 19.5092C18.5985 18.076 18.8863 16.357 18.8863 14.3623C18.8863 12.3675 18.6034 10.6092 18.0327 9.17097C17.462 7.7377 16.5109 6.63442 15.1696 5.871C13.8282 5.10757 11.9943 4.72339 9.66276 4.72339H5.92651V23.9617V23.9568Z" fill="#096F90"/>
<path d="M25.793 28.7149V8.04327H30.6657L31.1925 11.8604C31.6802 10.9591 32.2948 10.1907 33.0411 9.5652C33.7874 8.93476 34.6409 8.44222 35.6018 8.0876C36.5627 7.73298 37.626 7.55566 38.7918 7.55566V13.4217H36.9237C36.1091 13.4217 35.3579 13.5153 34.6702 13.7074C33.9776 13.8995 33.3776 14.2049 32.8606 14.6284C32.3485 15.052 31.9534 15.6332 31.6851 16.372C31.412 17.1108 31.2803 18.0417 31.2803 19.1597V28.7149H25.7978H25.793Z" fill="#096F90"/>
<path d="M40.0112 28.9165C38.9821 28.9165 38.1578 28.6111 37.5334 27.9955C36.9091 27.3798 36.5969 26.6213 36.5969 25.72C36.5969 24.8186 36.9091 24.0601 37.5334 23.4445C38.1578 22.8288 38.9821 22.5234 40.0112 22.5234C40.9868 22.5234 41.7867 22.8288 42.4061 23.4445C43.0305 24.0601 43.3426 24.8186 43.3426 25.72C43.3426 26.6213 43.0305 27.3798 42.4061 27.9955C41.7818 28.6111 40.9819 28.9165 40.0112 28.9165Z" fill="#096F90"/>
<path d="M0.444092 63.5018V34.7871H18.9692V39.2593H5.93139V46.9281H16.3695V51.2771H5.93139V63.5018H0.448967H0.444092Z" fill="#096F90"/>
<path d="M24.8175 63.9946C23.1103 63.9946 21.7007 63.7139 20.5935 63.1524C19.4814 62.5909 18.6619 61.8423 18.1351 60.8966C17.6084 59.9509 17.345 58.9068 17.345 57.7592C17.345 56.5032 17.662 55.395 18.301 54.4346C18.9351 53.479 19.9008 52.7255 21.1836 52.1787C22.4713 51.632 24.0858 51.3562 26.0369 51.3562H31.1144C31.1144 50.3465 30.9779 49.5043 30.7096 48.8344C30.4365 48.1646 30.017 47.6671 29.4512 47.3371C28.8805 47.0072 28.1245 46.8446 27.1782 46.8446C26.149 46.8446 25.2759 47.0712 24.5589 47.5194C23.8419 47.9725 23.403 48.6621 23.2371 49.5929H17.9156C18.0522 48.1153 18.5302 46.8397 19.3594 45.7561C20.1837 44.6775 21.2812 43.8352 22.6518 43.2343C24.0175 42.6335 25.5442 42.333 27.2221 42.333C29.1439 42.333 30.812 42.663 32.2168 43.3181C33.6215 43.9731 34.7092 44.9188 35.4653 46.1501C36.2213 47.3815 36.6017 48.8985 36.6017 50.7011V63.4972H31.9729L31.3632 60.34C31.0657 60.8867 30.7145 61.3793 30.3048 61.8176C29.8999 62.256 29.4268 62.6401 28.8854 62.9652C28.344 63.2952 27.7343 63.5464 27.0563 63.7237C26.3783 63.901 25.632 63.9897 24.8223 63.9897L24.8175 63.9946ZM26.1149 59.7293C26.8173 59.7293 27.4465 59.6012 28.0025 59.3402C28.5586 59.0791 29.0366 58.7245 29.4463 58.2714C29.856 57.8182 30.1731 57.3011 30.4023 56.715C30.6316 56.1289 30.7876 55.4935 30.8706 54.8089V54.7695H26.6856C25.8466 54.7695 25.1638 54.8729 24.6321 55.0748C24.1053 55.2817 23.72 55.5723 23.4761 55.9565C23.2322 56.3407 23.1103 56.779 23.1103 57.2715C23.1103 57.8182 23.2322 58.2714 23.4761 58.626C23.72 58.9806 24.0712 59.2565 24.5346 59.4485C24.9931 59.6406 25.5247 59.7342 26.1198 59.7342L26.1149 59.7293Z" fill="#096F90"/>
<path d="M46.8349 63.9952C44.9667 63.9952 43.3425 63.6947 41.9621 63.0939C40.5818 62.493 39.4989 61.6606 38.7137 60.5918C37.9284 59.5279 37.4796 58.3212 37.3723 56.9815H42.8157C42.9523 57.4987 43.1815 57.9715 43.5083 58.3951C43.8351 58.8187 44.2644 59.1536 44.8058 59.3999C45.3472 59.6461 45.9959 59.7693 46.7568 59.7693C47.5177 59.7693 48.0835 59.6658 48.542 59.4639C49.0005 59.257 49.3468 58.9763 49.5761 58.6217C49.8053 58.267 49.9224 57.8976 49.9224 57.5135C49.9224 56.9372 49.7614 56.4939 49.4346 56.1787C49.1078 55.8635 48.6347 55.6123 48.0152 55.4202C47.3909 55.2281 46.6349 55.036 45.7423 54.8439C44.7668 54.6518 43.8108 54.4105 42.8791 54.1248C41.9426 53.8392 41.1134 53.4747 40.3818 53.0363C39.6502 52.598 39.0697 52.0365 38.6356 51.3519C38.2015 50.6672 37.9869 49.8201 37.9869 48.8104C37.9869 47.5791 38.3137 46.4807 38.9624 45.5055C39.6111 44.5352 40.5623 43.7619 41.8061 43.1857C43.0498 42.6094 44.5521 42.3237 46.313 42.3237C48.7761 42.3237 50.7272 42.8852 52.1612 44.0033C53.5952 45.1262 54.4488 46.6679 54.7219 48.638H49.5614C49.4005 48.0076 49.0395 47.5101 48.4835 47.1407C47.9274 46.7713 47.1909 46.5891 46.2691 46.5891C45.2935 46.5891 44.5473 46.7664 44.0351 47.121C43.523 47.4756 43.2645 47.9435 43.2645 48.5149C43.2645 48.8991 43.4352 49.2389 43.7717 49.5393C44.1083 49.8398 44.5912 50.091 45.2155 50.2978C45.8398 50.5047 46.5959 50.7017 47.4885 50.8938C49.0591 51.2238 50.4394 51.5981 51.6344 52.0217C52.8246 52.4453 53.7611 53.0462 54.439 53.8244C55.117 54.6026 55.4536 55.7305 55.4536 57.2081C55.4536 58.5182 55.1024 59.6905 54.3951 60.7149C53.6879 61.7394 52.6977 62.5422 51.4101 63.1136C50.1224 63.6849 48.6006 63.9755 46.8397 63.9755L46.8349 63.9952Z" fill="#096F90"/>
<path d="M65.4381 63.5019C64.0041 63.5019 62.7505 63.2754 61.6824 62.8222C60.6142 62.3691 59.7801 61.6204 59.185 60.5664C58.59 59.5124 58.2924 58.0693 58.2924 56.2371V47.4601H54.8V42.8254H58.2924L58.9021 37.2056H63.7748V42.8254H69.1792V47.4601H63.7748V56.3208C63.7748 57.2517 63.9797 57.892 64.3845 58.2466C64.7894 58.6012 65.482 58.7785 66.4575 58.7785H69.1402V63.497H65.443L65.4381 63.5019Z" fill="#096F90"/>
<path d="M79.7782 63.5019C78.3442 63.5019 77.0906 63.2754 76.0224 62.8222C74.9542 62.3691 74.1202 61.6204 73.5251 60.5664C72.93 59.5124 72.6325 58.0693 72.6325 56.2371V47.4601H69.1401V42.8254H72.6325L73.2422 37.2056H78.1149V42.8254H83.5193V47.4601H78.1149V56.3208C78.1149 57.2517 78.3198 57.892 78.7246 58.2466C79.1295 58.6012 79.8221 58.7785 80.7976 58.7785H83.4803V63.497H79.7831L79.7782 63.5019Z" fill="#096F90"/>
<path d="M84.895 63.502V42.8304H89.7677L90.2945 46.6475C90.7823 45.7462 91.3969 44.9778 92.1431 44.3523C92.8894 43.7219 93.743 43.2293 94.7039 42.8747C95.6648 42.5201 96.7281 42.3428 97.8938 42.3428V48.2088H96.0257C95.2112 48.2088 94.46 48.3074 93.7722 48.4945C93.0796 48.6866 92.4797 48.992 91.9627 49.4156C91.4505 49.8391 91.0554 50.4203 90.7823 51.1591C90.5091 51.8979 90.3774 52.8288 90.3774 53.9469V63.502H84.895Z" fill="#096F90"/>
<path d="M105.166 63.9946C103.459 63.9946 102.054 63.7139 100.942 63.1524C99.83 62.5909 99.0106 61.8423 98.4838 60.8966C97.957 59.9509 97.6936 58.9068 97.6936 57.7592C97.6936 56.5032 98.0106 55.395 98.6496 54.4346C99.2837 53.479 100.249 52.7255 101.532 52.1787C102.82 51.632 104.434 51.3562 106.385 51.3562H111.463C111.463 50.3465 111.326 49.5043 111.058 48.8344C110.785 48.1646 110.366 47.6671 109.8 47.3371C109.229 47.0072 108.473 46.8446 107.527 46.8446C106.498 46.8446 105.625 47.0712 104.908 47.5194C104.191 47.9725 103.752 48.6621 103.586 49.5929H98.2643C98.4009 48.1153 98.8789 46.8397 99.7081 45.7561C100.532 44.6775 101.63 43.8352 103 43.2343C104.366 42.6335 105.893 42.333 107.571 42.333C109.493 42.333 111.161 42.663 112.565 43.3181C113.97 43.9731 115.058 44.9188 115.814 46.1501C116.57 47.3815 116.95 48.8985 116.95 50.7011V63.4972H112.322L111.712 60.34C111.414 60.8867 111.063 61.3793 110.653 61.8176C110.249 62.256 109.775 62.6401 109.234 62.9652C108.693 63.2952 108.083 63.5464 107.405 63.7237C106.727 63.901 105.986 63.9897 105.171 63.9897L105.166 63.9946ZM106.468 59.7293C107.171 59.7293 107.8 59.6012 108.356 59.3402C108.912 59.0791 109.39 58.7245 109.8 58.2714C110.205 57.8182 110.522 57.3011 110.756 56.715C110.985 56.1289 111.141 55.4935 111.224 54.8089V54.7695H107.039C106.2 54.7695 105.517 54.8729 104.986 55.0748C104.459 55.2817 104.074 55.5723 103.83 55.9565C103.586 56.3407 103.464 56.779 103.464 57.2715C103.464 57.8182 103.586 58.2714 103.83 58.626C104.074 58.9806 104.425 59.2565 104.888 59.4485C105.347 59.6406 105.878 59.7342 106.473 59.7342L106.468 59.7293Z" fill="#096F90"/>
<path d="M128.725 63.9951C126.667 63.9951 124.838 63.5321 123.243 62.6012C121.643 61.6703 120.399 60.3996 119.506 58.7841C118.614 57.1686 118.165 55.3265 118.165 53.248C118.165 51.1695 118.614 49.2338 119.506 47.6085C120.399 45.9831 121.648 44.6976 123.243 43.7519C124.838 42.8063 126.667 42.3384 128.725 42.3384C131.349 42.3384 133.559 43.0378 135.344 44.4316C137.129 45.8255 138.271 47.7415 138.758 50.1746H132.949C132.705 49.2191 132.198 48.4655 131.427 47.9188C130.657 47.3721 129.74 47.0963 128.686 47.0963C127.74 47.0963 126.891 47.3376 126.145 47.8153C125.399 48.2931 124.818 48.9925 124.399 49.9086C123.979 50.8247 123.769 51.9132 123.769 53.1692C123.769 54.1247 123.891 54.9817 124.135 55.7353C124.379 56.4889 124.716 57.1292 125.15 57.6611C125.584 58.193 126.106 58.5969 126.715 58.8727C127.325 59.1485 127.979 59.2815 128.686 59.2815C129.393 59.2815 130.032 59.1584 130.618 58.9121C131.198 58.6659 131.696 58.3162 132.1 57.868C132.505 57.4148 132.793 56.8632 132.954 56.2081H138.763C138.275 58.587 137.129 60.4833 135.329 61.887C133.529 63.2957 131.33 64 128.73 64L128.725 63.9951Z" fill="#096F90"/>
<path d="M140.221 63.5025V33.9702H145.704V63.5025H140.221ZM153.625 63.5025L144.889 52.1792L152.728 42.826H159.186L149.069 54.5187V50.1302L160.444 63.5025H153.62H153.625Z" fill="#096F90"/>
</svg>
