<svg width="24" height="24" viewBox="0 0 24 24" fill="none" xmlns="http://www.w3.org/2000/svg">
					<rect width="24" height="24" rx="12" fill="#0060E6"/>
					<rect x="0.375" y="0.375" width="23.25" height="23.25" rx="11.625" stroke="black" stroke-opacity="0.1" stroke-width="0.75"/>
					<path d="M14.9552 7.73126C18.5032 7.73126 20 9.67157 20 12.0554C20 14.4392 18.5032 16.3795 14.9552 16.3795H13.5138V7.73126H14.9552Z" fill="white"/>
					<path d="M8.57989 7.62042C7.4157 7.62042 6.47325 8.56288 6.47325 9.72706C6.47325 10.8912 7.4157 11.8336 8.57989 11.8336C9.74407 11.8336 10.6865 10.8912 10.6865 9.72706C10.6865 8.56288 9.74407 7.62042 8.57989 7.62042ZM8.57989 12.6098C6.63958 12.6098 5.03187 13.7185 4.81012 16.3795H12.4051C12.1833 13.7185 10.5756 12.6098 8.57989 12.6098Z" fill="white"/>
				</svg>