<svg width="229" height="74" viewBox="0 0 229 74" fill="none" xmlns="http://www.w3.org/2000/svg">
<path d="M0 4C0 1.79086 1.79086 0 4 0H225C227.209 0 229 1.79086 229 4V60C229 62.2091 227.209 64 225 64H0V4Z" fill="#E1F7FE"/>
<path d="M1.70711 72.2929C1.07714 72.9229 1.33172e-07 72.4767 2.11057e-07 71.5858L9.53989e-08 62L12 62L1.70711 72.2929Z" fill="#E1F7FE"/>
<path d="M30.2164 39.1695C29.1025 39.1695 28.1015 38.9758 27.2136 38.5883C26.3418 38.1847 25.6557 37.6358 25.1552 36.9416C24.6548 36.2313 24.3965 35.416 24.3803 34.4958H26.7293C26.81 35.2868 27.1329 35.9568 27.6979 36.5057C28.2791 37.0385 29.1186 37.3049 30.2164 37.3049C31.2658 37.3049 32.0892 37.0466 32.6865 36.5299C33.3 35.9972 33.6067 35.3191 33.6067 34.4958C33.6067 33.85 33.4291 33.3253 33.0739 32.9217C32.7188 32.5181 32.2748 32.2114 31.7421 32.0015C31.2093 31.7916 30.4909 31.5656 29.5868 31.3235C28.4729 31.0329 27.5769 30.7423 26.8988 30.4517C26.2369 30.1611 25.6638 29.709 25.1795 29.0956C24.7113 28.4659 24.4772 27.6265 24.4772 26.5771C24.4772 25.6569 24.7113 24.8416 25.1795 24.1312C25.6476 23.4209 26.3015 22.872 27.141 22.4845C27.9966 22.0971 28.9733 21.9034 30.0711 21.9034C31.6533 21.9034 32.9448 22.2989 33.9457 23.0899C34.9628 23.881 35.5359 24.9304 35.6651 26.2381H33.2435C33.1627 25.5923 32.8237 25.0272 32.2264 24.5429C31.629 24.0425 30.838 23.7922 29.8532 23.7922C28.933 23.7922 28.1823 24.0344 27.6011 24.5187C27.0199 24.9869 26.7293 25.6488 26.7293 26.5044C26.7293 27.1179 26.8988 27.6184 27.2378 28.0058C27.593 28.3933 28.0208 28.692 28.5213 28.9018C29.0379 29.0956 29.7563 29.3216 30.6765 29.5799C31.7905 29.8866 32.6865 30.1934 33.3645 30.5001C34.0426 30.7907 34.6238 31.2508 35.1081 31.8804C35.5924 32.4939 35.8346 33.3334 35.8346 34.3989C35.8346 35.2223 35.6166 35.9972 35.1808 36.7237C34.7449 37.4502 34.0991 38.0394 33.2435 38.4915C32.3878 38.9435 31.3788 39.1695 30.2164 39.1695ZM41.7655 27.5457V35.3676C41.7655 36.0133 41.9027 36.4734 42.1772 36.7479C42.4516 37.0062 42.9279 37.1354 43.6059 37.1354H45.2284V39H43.2427C42.0157 39 41.0955 38.7175 40.482 38.1524C39.8685 37.5874 39.5618 36.6591 39.5618 35.3676V27.5457H37.8425V25.7295H39.5618V22.3877H41.7655V25.7295H45.2284V27.5457H41.7655ZM62.0068 39.1695C60.4409 39.1695 59.0121 38.8063 57.7206 38.0798C56.429 37.3372 55.4039 36.312 54.6451 35.0043C53.9025 33.6805 53.5312 32.1952 53.5312 30.5485C53.5312 28.9018 53.9025 27.4246 54.6451 26.117C55.4039 24.7932 56.429 23.768 57.7206 23.0415C59.0121 22.2989 60.4409 21.9276 62.0068 21.9276C63.589 21.9276 65.0258 22.2989 66.3173 23.0415C67.6089 23.768 68.6259 24.7851 69.3686 26.0928C70.1112 27.4004 70.4825 28.8857 70.4825 30.5485C70.4825 32.2114 70.1112 33.6966 69.3686 35.0043C68.6259 36.312 67.6089 37.3372 66.3173 38.0798C65.0258 38.8063 63.589 39.1695 62.0068 39.1695ZM62.0068 37.2564C63.1854 37.2564 64.2428 36.982 65.1792 36.4331C66.1317 35.8842 66.8743 35.1012 67.4071 34.0841C67.956 33.067 68.2304 31.8885 68.2304 30.5485C68.2304 29.1924 67.956 28.0139 67.4071 27.013C66.8743 25.9959 66.1397 25.2129 65.2034 24.664C64.267 24.1151 63.2015 23.8406 62.0068 23.8406C60.8122 23.8406 59.7467 24.1151 58.8103 24.664C57.8739 25.2129 57.1313 25.9959 56.5824 27.013C56.0496 28.0139 55.7833 29.1924 55.7833 30.5485C55.7833 31.8885 56.0496 33.067 56.5824 34.0841C57.1313 35.1012 57.8739 35.8842 58.8103 36.4331C59.7628 36.982 60.8283 37.2564 62.0068 37.2564ZM75.5953 21.08V39H73.3917V21.08H75.5953ZM78.5278 32.3163C78.5278 30.9602 78.8022 29.7736 79.3511 28.7565C79.9 27.7233 80.6507 26.9242 81.6032 26.3591C82.5719 25.7941 83.6455 25.5116 84.824 25.5116C85.9864 25.5116 86.9954 25.7618 87.851 26.2623C88.7067 26.7627 89.3444 27.3924 89.7641 28.1511V25.7295H91.992V39H89.7641V36.5299C89.3282 37.3049 88.6744 37.9506 87.8026 38.4672C86.947 38.9677 85.946 39.2179 84.7998 39.2179C83.6213 39.2179 82.5557 38.9274 81.6032 38.3462C80.6507 37.765 79.9 36.9497 79.3511 35.9003C78.8022 34.851 78.5278 33.6563 78.5278 32.3163ZM89.7641 32.3405C89.7641 31.3396 89.5623 30.4678 89.1587 29.7252C88.7551 28.9826 88.2062 28.4175 87.512 28.0301C86.8339 27.6265 86.0832 27.4246 85.2599 27.4246C84.4365 27.4246 83.6858 27.6184 83.0078 28.0058C82.3297 28.3933 81.7889 28.9583 81.3853 29.701C80.9817 30.4436 80.7799 31.3154 80.7799 32.3163C80.7799 33.3334 80.9817 34.2213 81.3853 34.9801C81.7889 35.7227 82.3297 36.2959 83.0078 36.6995C83.6858 37.0869 84.4365 37.2806 85.2599 37.2806C86.0832 37.2806 86.8339 37.0869 87.512 36.6995C88.2062 36.2959 88.7551 35.7227 89.1587 34.9801C89.5623 34.2213 89.7641 33.3415 89.7641 32.3405ZM100.656 36.9658L104.773 25.7295H107.122L101.915 39H99.3484L94.1419 25.7295H96.5151L100.656 36.9658ZM113.988 39.2179C112.971 39.2179 112.059 39.0484 111.252 38.7094C110.445 38.3542 109.807 37.8699 109.339 37.2564C108.871 36.6268 108.612 35.9084 108.564 35.1012H110.84C110.905 35.7631 111.211 36.3039 111.76 36.7237C112.325 37.1434 113.06 37.3533 113.964 37.3533C114.804 37.3533 115.465 37.1676 115.95 36.7963C116.434 36.425 116.676 35.9568 116.676 35.3918C116.676 34.8106 116.418 34.3828 115.901 34.1083C115.385 33.8177 114.586 33.5352 113.504 33.2608C112.519 33.0025 111.712 32.7441 111.082 32.4858C110.469 32.2114 109.936 31.8159 109.484 31.2992C109.048 30.7665 108.83 30.0723 108.83 29.2166C108.83 28.5386 109.032 27.917 109.436 27.352C109.839 26.787 110.412 26.343 111.155 26.0201C111.898 25.6811 112.745 25.5116 113.698 25.5116C115.167 25.5116 116.353 25.8829 117.257 26.6255C118.162 27.3681 118.646 28.3852 118.71 29.6768H116.507C116.458 28.9826 116.176 28.4256 115.659 28.0058C115.159 27.5861 114.481 27.3762 113.625 27.3762C112.834 27.3762 112.204 27.5457 111.736 27.8848C111.268 28.2238 111.034 28.6677 111.034 29.2166C111.034 29.6525 111.171 30.0158 111.446 30.3064C111.736 30.5808 112.091 30.8068 112.511 30.9844C112.947 31.1459 113.544 31.3315 114.303 31.5414C115.256 31.7997 116.031 32.058 116.628 32.3163C117.225 32.5585 117.734 32.9298 118.153 33.4303C118.589 33.9307 118.815 34.5846 118.832 35.3918C118.832 36.1183 118.63 36.7721 118.226 37.3533C117.823 37.9345 117.249 38.3946 116.507 38.7336C115.78 39.0565 114.941 39.2179 113.988 39.2179ZM141.403 22.1213V39H139.199V31.3477H130.602V39H128.398V22.1213H130.602V29.5315H139.199V22.1213H141.403ZM150.953 39.2179C149.71 39.2179 148.58 38.9354 147.563 38.3704C146.562 37.8053 145.771 37.0062 145.19 35.973C144.624 34.9236 144.342 33.7128 144.342 32.3405C144.342 30.9844 144.633 29.7898 145.214 28.7565C145.811 27.7072 146.618 26.908 147.635 26.3591C148.652 25.7941 149.791 25.5116 151.05 25.5116C152.309 25.5116 153.447 25.7941 154.464 26.3591C155.481 26.908 156.281 27.6991 156.862 28.7323C157.459 29.7655 157.758 30.9683 157.758 32.3405C157.758 33.7128 157.451 34.9236 156.838 35.973C156.24 37.0062 155.425 37.8053 154.392 38.3704C153.358 38.9354 152.212 39.2179 150.953 39.2179ZM150.953 37.2806C151.744 37.2806 152.487 37.095 153.181 36.7237C153.875 36.3524 154.432 35.7954 154.852 35.0528C155.288 34.3101 155.506 33.4061 155.506 32.3405C155.506 31.275 155.296 30.371 154.876 29.6283C154.456 28.8857 153.907 28.3368 153.229 27.9816C152.551 27.6103 151.817 27.4246 151.026 27.4246C150.218 27.4246 149.476 27.6103 148.798 27.9816C148.136 28.3368 147.603 28.8857 147.199 29.6283C146.796 30.371 146.594 31.275 146.594 32.3405C146.594 33.4222 146.788 34.3343 147.175 35.077C147.579 35.8196 148.112 36.3766 148.774 36.7479C149.435 37.1031 150.162 37.2806 150.953 37.2806ZM165.353 39.2179C164.336 39.2179 163.424 39.0484 162.617 38.7094C161.809 38.3542 161.172 37.8699 160.704 37.2564C160.235 36.6268 159.977 35.9084 159.929 35.1012H162.205C162.27 35.7631 162.576 36.3039 163.125 36.7237C163.69 37.1434 164.425 37.3533 165.329 37.3533C166.168 37.3533 166.83 37.1676 167.315 36.7963C167.799 36.425 168.041 35.9568 168.041 35.3918C168.041 34.8106 167.783 34.3828 167.266 34.1083C166.75 33.8177 165.95 33.5352 164.869 33.2608C163.884 33.0025 163.077 32.7441 162.447 32.4858C161.834 32.2114 161.301 31.8159 160.849 31.2992C160.413 30.7665 160.195 30.0723 160.195 29.2166C160.195 28.5386 160.397 27.917 160.8 27.352C161.204 26.787 161.777 26.343 162.52 26.0201C163.262 25.6811 164.11 25.5116 165.063 25.5116C166.532 25.5116 167.718 25.8829 168.622 26.6255C169.526 27.3681 170.011 28.3852 170.075 29.6768H167.872C167.823 28.9826 167.541 28.4256 167.024 28.0058C166.524 27.5861 165.846 27.3762 164.99 27.3762C164.199 27.3762 163.569 27.5457 163.101 27.8848C162.633 28.2238 162.399 28.6677 162.399 29.2166C162.399 29.6525 162.536 30.0158 162.81 30.3064C163.101 30.5808 163.456 30.8068 163.876 30.9844C164.312 31.1459 164.909 31.3315 165.668 31.5414C166.62 31.7997 167.395 32.058 167.993 32.3163C168.59 32.5585 169.099 32.9298 169.518 33.4303C169.954 33.9307 170.18 34.5846 170.196 35.3918C170.196 36.1183 169.995 36.7721 169.591 37.3533C169.187 37.9345 168.614 38.3946 167.872 38.7336C167.145 39.0565 166.306 39.2179 165.353 39.2179ZM175.511 28.1754C175.947 27.4166 176.593 26.787 177.448 26.2865C178.32 25.7699 179.329 25.5116 180.475 25.5116C181.654 25.5116 182.719 25.7941 183.672 26.3591C184.64 26.9242 185.399 27.7233 185.948 28.7565C186.497 29.7736 186.771 30.9602 186.771 32.3163C186.771 33.6563 186.497 34.851 185.948 35.9003C185.399 36.9497 184.64 37.765 183.672 38.3462C182.719 38.9274 181.654 39.2179 180.475 39.2179C179.345 39.2179 178.344 38.9677 177.472 38.4672C176.617 37.9506 175.963 37.3129 175.511 36.5542V45.2962H173.307V25.7295H175.511V28.1754ZM184.519 32.3163C184.519 31.3154 184.318 30.4436 183.914 29.701C183.51 28.9583 182.961 28.3933 182.267 28.0058C181.589 27.6184 180.838 27.4246 180.015 27.4246C179.208 27.4246 178.457 27.6265 177.763 28.0301C177.085 28.4175 176.536 28.9906 176.116 29.7494C175.713 30.492 175.511 31.3557 175.511 32.3405C175.511 33.3415 175.713 34.2213 176.116 34.9801C176.536 35.7227 177.085 36.2959 177.763 36.6995C178.457 37.0869 179.208 37.2806 180.015 37.2806C180.838 37.2806 181.589 37.0869 182.267 36.6995C182.961 36.2959 183.51 35.7227 183.914 34.9801C184.318 34.2213 184.519 33.3334 184.519 32.3163ZM190.81 23.5743C190.39 23.5743 190.035 23.429 189.745 23.1384C189.454 22.8478 189.309 22.4926 189.309 22.0729C189.309 21.6531 189.454 21.2979 189.745 21.0074C190.035 20.7168 190.39 20.5715 190.81 20.5715C191.214 20.5715 191.553 20.7168 191.827 21.0074C192.118 21.2979 192.263 21.6531 192.263 22.0729C192.263 22.4926 192.118 22.8478 191.827 23.1384C191.553 23.429 191.214 23.5743 190.81 23.5743ZM191.876 25.7295V39H189.672V25.7295H191.876ZM198.32 27.5457V35.3676C198.32 36.0133 198.457 36.4734 198.731 36.7479C199.006 37.0062 199.482 37.1354 200.16 37.1354H201.782V39H199.797C198.57 39 197.65 38.7175 197.036 38.1524C196.423 37.5874 196.116 36.6591 196.116 35.3676V27.5457H194.397V25.7295H196.116V22.3877H198.32V25.7295H201.782V27.5457H198.32ZM203.629 32.3163C203.629 30.9602 203.904 29.7736 204.452 28.7565C205.001 27.7233 205.752 26.9242 206.705 26.3591C207.673 25.7941 208.747 25.5116 209.925 25.5116C211.088 25.5116 212.097 25.7618 212.952 26.2623C213.808 26.7627 214.446 27.3924 214.865 28.1511V25.7295H217.093V39H214.865V36.5299C214.43 37.3049 213.776 37.9506 212.904 38.4672C212.048 38.9677 211.047 39.2179 209.901 39.2179C208.723 39.2179 207.657 38.9274 206.705 38.3462C205.752 37.765 205.001 36.9497 204.452 35.9003C203.904 34.851 203.629 33.6563 203.629 32.3163ZM214.865 32.3405C214.865 31.3396 214.664 30.4678 214.26 29.7252C213.856 28.9826 213.308 28.4175 212.613 28.0301C211.935 27.6265 211.185 27.4246 210.361 27.4246C209.538 27.4246 208.787 27.6184 208.109 28.0058C207.431 28.3933 206.89 28.9583 206.487 29.701C206.083 30.4436 205.881 31.3154 205.881 32.3163C205.881 33.3334 206.083 34.2213 206.487 34.9801C206.89 35.7227 207.431 36.2959 208.109 36.6995C208.787 37.0869 209.538 37.2806 210.361 37.2806C211.185 37.2806 211.935 37.0869 212.613 36.6995C213.308 36.2959 213.856 35.7227 214.26 34.9801C214.664 34.2213 214.865 33.3415 214.865 32.3405ZM223.021 21.08V39H220.817V21.08H223.021Z" fill="#014A7B"/>
</svg>
