<svg width="229" height="74" viewBox="0 0 229 74" fill="none" xmlns="http://www.w3.org/2000/svg">
<path d="M0 4C0 1.79086 1.79086 0 4 0H225C227.209 0 229 1.79086 229 4V60C229 62.2091 227.209 64 225 64H0V4Z" fill="#E1F7FE"/>
<path d="M1.70711 72.2929C1.07714 72.9229 1.33172e-07 72.4767 2.11057e-07 71.5858L9.53989e-08 62L12 62L1.70711 72.2929Z" fill="#E1F7FE"/>
<path d="M36.1494 27.0614C36.1494 28.4659 35.6651 29.6364 34.6964 30.5728C33.7439 31.493 32.2829 31.9531 30.3133 31.9531H27.0683V39H24.8646V22.1213H30.3133C32.2183 22.1213 33.6632 22.5814 34.648 23.5016C35.6489 24.4218 36.1494 25.6084 36.1494 27.0614ZM30.3133 30.1369C31.5403 30.1369 32.4443 29.8705 33.0255 29.3377C33.6067 28.805 33.8973 28.0462 33.8973 27.0614C33.8973 24.9788 32.7026 23.9375 30.3133 23.9375H27.0683V30.1369H30.3133ZM44.2401 39.1695C43.1261 39.1695 42.1252 38.9758 41.2373 38.5883C40.3655 38.1847 39.6794 37.6358 39.1789 36.9416C38.6784 36.2313 38.4201 35.416 38.404 34.4958H40.7529C40.8337 35.2868 41.1565 35.9568 41.7216 36.5057C42.3028 37.0385 43.1423 37.3049 44.2401 37.3049C45.2894 37.3049 46.1128 37.0466 46.7101 36.5299C47.3236 35.9972 47.6304 35.3191 47.6304 34.4958C47.6304 33.85 47.4528 33.3253 47.0976 32.9217C46.7424 32.5181 46.2985 32.2114 45.7657 32.0015C45.2329 31.7916 44.5145 31.5656 43.6105 31.3235C42.4965 31.0329 41.6005 30.7423 40.9225 30.4517C40.2605 30.1611 39.6874 29.709 39.2031 29.0956C38.7349 28.4659 38.5008 27.6265 38.5008 26.5771C38.5008 25.6569 38.7349 24.8416 39.2031 24.1312C39.6713 23.4209 40.3251 22.872 41.1646 22.4845C42.0203 22.0971 42.997 21.9034 44.0948 21.9034C45.6769 21.9034 46.9684 22.2989 47.9694 23.0899C48.9865 23.881 49.5596 24.9304 49.6887 26.2381H47.2671C47.1864 25.5923 46.8474 25.0272 46.25 24.5429C45.6527 24.0425 44.8616 23.7922 43.8768 23.7922C42.9566 23.7922 42.2059 24.0344 41.6247 24.5187C41.0435 24.9869 40.7529 25.6488 40.7529 26.5044C40.7529 27.1179 40.9225 27.6184 41.2615 28.0058C41.6167 28.3933 42.0445 28.692 42.5449 28.9018C43.0616 29.0956 43.78 29.3216 44.7002 29.5799C45.8141 29.8866 46.7101 30.1934 47.3882 30.5001C48.0662 30.7907 48.6474 31.2508 49.1318 31.8804C49.6161 32.4939 49.8582 33.3334 49.8582 34.3989C49.8582 35.2223 49.6403 35.9972 49.2044 36.7237C48.7685 37.4502 48.1227 38.0394 47.2671 38.4915C46.4115 38.9435 45.4025 39.1695 44.2401 39.1695ZM66.1052 22.1213V39H63.9016V31.3477H55.3048V39H53.1011V22.1213H55.3048V29.5315H63.9016V22.1213H66.1052ZM89.3282 22.1213V39H87.1245V31.3477H78.5278V39H76.3241V22.1213H78.5278V29.5315H87.1245V22.1213H89.3282ZM98.8787 39.2179C97.6356 39.2179 96.5055 38.9354 95.4884 38.3704C94.4875 37.8053 93.6964 37.0062 93.1152 35.973C92.5502 34.9236 92.2676 33.7128 92.2676 32.3405C92.2676 30.9844 92.5582 29.7898 93.1394 28.7565C93.7368 27.7072 94.544 26.908 95.5611 26.3591C96.5781 25.7941 97.7163 25.5116 98.9755 25.5116C100.235 25.5116 101.373 25.7941 102.39 26.3591C103.407 26.908 104.206 27.6991 104.787 28.7323C105.385 29.7655 105.683 30.9683 105.683 32.3405C105.683 33.7128 105.377 34.9236 104.763 35.973C104.166 37.0062 103.351 37.8053 102.317 38.3704C101.284 38.9354 100.138 39.2179 98.8787 39.2179ZM98.8787 37.2806C99.6697 37.2806 100.412 37.095 101.107 36.7237C101.801 36.3524 102.358 35.7954 102.777 35.0528C103.213 34.3101 103.431 33.4061 103.431 32.3405C103.431 31.275 103.221 30.371 102.802 29.6283C102.382 28.8857 101.833 28.3368 101.155 27.9816C100.477 27.6103 99.7424 27.4246 98.9513 27.4246C98.1441 27.4246 97.4015 27.6103 96.7234 27.9816C96.0615 28.3368 95.5288 28.8857 95.1252 29.6283C94.7216 30.371 94.5198 31.275 94.5198 32.3405C94.5198 33.4222 94.7135 34.3343 95.1009 35.077C95.5045 35.8196 96.0373 36.3766 96.6992 36.7479C97.3611 37.1031 98.0876 37.2806 98.8787 37.2806ZM113.279 39.2179C112.262 39.2179 111.35 39.0484 110.542 38.7094C109.735 38.3542 109.097 37.8699 108.629 37.2564C108.161 36.6268 107.903 35.9084 107.854 35.1012H110.131C110.195 35.7631 110.502 36.3039 111.051 36.7237C111.616 37.1434 112.351 37.3533 113.255 37.3533C114.094 37.3533 114.756 37.1676 115.24 36.7963C115.725 36.425 115.967 35.9568 115.967 35.3918C115.967 34.8106 115.709 34.3828 115.192 34.1083C114.675 33.8177 113.876 33.5352 112.794 33.2608C111.81 33.0025 111.002 32.7441 110.373 32.4858C109.759 32.2114 109.227 31.8159 108.775 31.2992C108.339 30.7665 108.121 30.0723 108.121 29.2166C108.121 28.5386 108.323 27.917 108.726 27.352C109.13 26.787 109.703 26.343 110.446 26.0201C111.188 25.6811 112.036 25.5116 112.988 25.5116C114.457 25.5116 115.644 25.8829 116.548 26.6255C117.452 27.3681 117.936 28.3852 118.001 29.6768H115.797C115.749 28.9826 115.466 28.4256 114.95 28.0058C114.449 27.5861 113.771 27.3762 112.916 27.3762C112.125 27.3762 111.495 27.5457 111.027 27.8848C110.559 28.2238 110.324 28.6677 110.324 29.2166C110.324 29.6525 110.462 30.0158 110.736 30.3064C111.027 30.5808 111.382 30.8068 111.802 30.9844C112.238 31.1459 112.835 31.3315 113.594 31.5414C114.546 31.7997 115.321 32.058 115.918 32.3163C116.516 32.5585 117.024 32.9298 117.444 33.4303C117.88 33.9307 118.106 34.5846 118.122 35.3918C118.122 36.1183 117.92 36.7721 117.517 37.3533C117.113 37.9345 116.54 38.3946 115.797 38.7336C115.071 39.0565 114.231 39.2179 113.279 39.2179ZM123.437 28.1754C123.872 27.4166 124.518 26.787 125.374 26.2865C126.246 25.7699 127.255 25.5116 128.401 25.5116C129.579 25.5116 130.645 25.7941 131.597 26.3591C132.566 26.9242 133.325 27.7233 133.874 28.7565C134.423 29.7736 134.697 30.9602 134.697 32.3163C134.697 33.6563 134.423 34.851 133.874 35.9003C133.325 36.9497 132.566 37.765 131.597 38.3462C130.645 38.9274 129.579 39.2179 128.401 39.2179C127.271 39.2179 126.27 38.9677 125.398 38.4672C124.542 37.9506 123.889 37.3129 123.437 36.5542V45.2962H121.233V25.7295H123.437V28.1754ZM132.445 32.3163C132.445 31.3154 132.243 30.4436 131.84 29.701C131.436 28.9583 130.887 28.3933 130.193 28.0058C129.515 27.6184 128.764 27.4246 127.941 27.4246C127.134 27.4246 126.383 27.6265 125.689 28.0301C125.011 28.4175 124.462 28.9906 124.042 29.7494C123.638 30.492 123.437 31.3557 123.437 32.3405C123.437 33.3415 123.638 34.2213 124.042 34.9801C124.462 35.7227 125.011 36.2959 125.689 36.6995C126.383 37.0869 127.134 37.2806 127.941 37.2806C128.764 37.2806 129.515 37.0869 130.193 36.6995C130.887 36.2959 131.436 35.7227 131.84 34.9801C132.243 34.2213 132.445 33.3334 132.445 32.3163ZM138.736 23.5743C138.316 23.5743 137.961 23.429 137.67 23.1384C137.38 22.8478 137.235 22.4926 137.235 22.0729C137.235 21.6531 137.38 21.2979 137.67 21.0074C137.961 20.7168 138.316 20.5715 138.736 20.5715C139.14 20.5715 139.479 20.7168 139.753 21.0074C140.044 21.2979 140.189 21.6531 140.189 22.0729C140.189 22.4926 140.044 22.8478 139.753 23.1384C139.479 23.429 139.14 23.5743 138.736 23.5743ZM139.801 25.7295V39H137.598V25.7295H139.801ZM146.245 27.5457V35.3676C146.245 36.0133 146.382 36.4734 146.657 36.7479C146.931 37.0062 147.408 37.1354 148.086 37.1354H149.708V39H147.722C146.495 39 145.575 38.7175 144.962 38.1524C144.348 37.5874 144.042 36.6591 144.042 35.3676V27.5457H142.322V25.7295H144.042V22.3877H146.245V25.7295H149.708V27.5457H146.245ZM151.555 32.3163C151.555 30.9602 151.829 29.7736 152.378 28.7565C152.927 27.7233 153.678 26.9242 154.63 26.3591C155.599 25.7941 156.673 25.5116 157.851 25.5116C159.013 25.5116 160.022 25.7618 160.878 26.2623C161.734 26.7627 162.371 27.3924 162.791 28.1511V25.7295H165.019V39H162.791V36.5299C162.355 37.3049 161.701 37.9506 160.83 38.4672C159.974 38.9677 158.973 39.2179 157.827 39.2179C156.648 39.2179 155.583 38.9274 154.63 38.3462C153.678 37.765 152.927 36.9497 152.378 35.9003C151.829 34.851 151.555 33.6563 151.555 32.3163ZM162.791 32.3405C162.791 31.3396 162.589 30.4678 162.186 29.7252C161.782 28.9826 161.233 28.4175 160.539 28.0301C159.861 27.6265 159.11 27.4246 158.287 27.4246C157.464 27.4246 156.713 27.6184 156.035 28.0058C155.357 28.3933 154.816 28.9583 154.412 29.701C154.009 30.4436 153.807 31.3154 153.807 32.3163C153.807 33.3334 154.009 34.2213 154.412 34.9801C154.816 35.7227 155.357 36.2959 156.035 36.6995C156.713 37.0869 157.464 37.2806 158.287 37.2806C159.11 37.2806 159.861 37.0869 160.539 36.6995C161.233 36.2959 161.782 35.7227 162.186 34.9801C162.589 34.2213 162.791 33.3415 162.791 32.3405ZM170.947 21.08V39H168.743V21.08H170.947Z" fill="#014A7B"/>
</svg>
