<svg width="229" height="74" viewBox="0 0 229 74" fill="none" xmlns="http://www.w3.org/2000/svg">
<path d="M0 4C0 1.79086 1.79086 0 4 0H225C227.209 0 229 1.79086 229 4V60C229 62.2091 227.209 64 225 64H0V4Z" fill="#E1F7FE"/>
<path d="M1.70711 72.2929C1.07714 72.9229 1.33172e-07 72.4767 2.11057e-07 71.5858L9.53989e-08 62L12 62L1.70711 72.2929Z" fill="#E1F7FE"/>
<path d="M34.8417 35.2465H27.48L26.1239 39H23.7991L29.9016 22.2182H32.4443L38.5226 39H36.1978L34.8417 35.2465ZM34.2121 33.4545L31.1609 24.9304L28.1096 33.4545H34.2121ZM46.1223 36.9658L50.2391 25.7295H52.5881L47.3816 39H44.8146L39.6082 25.7295H41.9813L46.1223 36.9658ZM53.9332 32.3163C53.9332 30.9602 54.2076 29.7736 54.7565 28.7565C55.3054 27.7233 56.0561 26.9242 57.0086 26.3591C57.9773 25.7941 59.0509 25.5116 60.2294 25.5116C61.3918 25.5116 62.4008 25.7618 63.2564 26.2623C64.1121 26.7627 64.7498 27.3924 65.1695 28.1511V25.7295H67.3974V39H65.1695V36.5299C64.7336 37.3049 64.0798 37.9506 63.208 38.4672C62.3524 38.9677 61.3514 39.2179 60.2052 39.2179C59.0267 39.2179 57.9612 38.9274 57.0086 38.3462C56.0561 37.765 55.3054 36.9497 54.7565 35.9003C54.2076 34.851 53.9332 33.6563 53.9332 32.3163ZM65.1695 32.3405C65.1695 31.3396 64.9677 30.4678 64.5641 29.7252C64.1605 28.9826 63.6116 28.4175 62.9174 28.0301C62.2393 27.6265 61.4886 27.4246 60.6653 27.4246C59.8419 27.4246 59.0912 27.6184 58.4132 28.0058C57.7351 28.3933 57.1943 28.9583 56.7907 29.701C56.3871 30.4436 56.1853 31.3154 56.1853 32.3163C56.1853 33.3334 56.3871 34.2213 56.7907 34.9801C57.1943 35.7227 57.7351 36.2959 58.4132 36.6995C59.0912 37.0869 59.8419 37.2806 60.6653 37.2806C61.4886 37.2806 62.2393 37.0869 62.9174 36.6995C63.6116 36.2959 64.1605 35.7227 64.5641 34.9801C64.9677 34.2213 65.1695 33.3415 65.1695 32.3405ZM77.5871 25.4874C79.2015 25.4874 80.5092 25.9797 81.5102 26.9645C82.5111 27.9332 83.0116 29.3377 83.0116 31.1782V39H80.8321V31.493C80.8321 30.1692 80.5011 29.1601 79.8392 28.4659C79.1773 27.7556 78.2733 27.4004 77.127 27.4004C75.9646 27.4004 75.0364 27.7637 74.3422 28.4902C73.6641 29.2166 73.3251 30.2741 73.3251 31.6625V39H71.1214V25.7295H73.3251V27.6184C73.761 26.9403 74.3502 26.4156 75.0929 26.0443C75.8516 25.673 76.6831 25.4874 77.5871 25.4874ZM89.2993 27.5457V35.3676C89.2993 36.0133 89.4365 36.4734 89.7109 36.7479C89.9854 37.0062 90.4616 37.1354 91.1397 37.1354H92.7622V39H90.7765C89.5495 39 88.6293 38.7175 88.0158 38.1524C87.4023 37.5874 87.0956 36.6591 87.0956 35.3676V27.5457H85.3762V25.7295H87.0956V22.3877H89.2993V25.7295H92.7622V27.5457H89.2993ZM96.5704 23.5743C96.1506 23.5743 95.7955 23.429 95.5049 23.1384C95.2143 22.8478 95.069 22.4926 95.069 22.0729C95.069 21.6531 95.2143 21.2979 95.5049 21.0074C95.7955 20.7168 96.1506 20.5715 96.5704 20.5715C96.974 20.5715 97.313 20.7168 97.5875 21.0074C97.8781 21.2979 98.0233 21.6531 98.0233 22.0729C98.0233 22.4926 97.8781 22.8478 97.5875 23.1384C97.313 23.429 96.974 23.5743 96.5704 23.5743ZM97.6359 25.7295V39H95.4322V25.7295H97.6359ZM120.852 22.1213V39H118.648V31.3477H110.051V39H107.848V22.1213H110.051V29.5315H118.648V22.1213H120.852ZM130.402 39.2179C129.159 39.2179 128.029 38.9354 127.012 38.3704C126.011 37.8053 125.22 37.0062 124.639 35.973C124.074 34.9236 123.791 33.7128 123.791 32.3405C123.791 30.9844 124.082 29.7898 124.663 28.7565C125.26 27.7072 126.068 26.908 127.085 26.3591C128.102 25.7941 129.24 25.5116 130.499 25.5116C131.758 25.5116 132.897 25.7941 133.914 26.3591C134.931 26.908 135.73 27.6991 136.311 28.7323C136.908 29.7655 137.207 30.9683 137.207 32.3405C137.207 33.7128 136.9 34.9236 136.287 35.973C135.69 37.0062 134.874 37.8053 133.841 38.3704C132.808 38.9354 131.662 39.2179 130.402 39.2179ZM130.402 37.2806C131.193 37.2806 131.936 37.095 132.63 36.7237C133.324 36.3524 133.881 35.7954 134.301 35.0528C134.737 34.3101 134.955 33.4061 134.955 32.3405C134.955 31.275 134.745 30.371 134.325 29.6283C133.906 28.8857 133.357 28.3368 132.679 27.9816C132.001 27.6103 131.266 27.4246 130.475 27.4246C129.668 27.4246 128.925 27.6103 128.247 27.9816C127.585 28.3368 127.052 28.8857 126.649 29.6283C126.245 30.371 126.043 31.275 126.043 32.3405C126.043 33.4222 126.237 34.3343 126.625 35.077C127.028 35.8196 127.561 36.3766 128.223 36.7479C128.885 37.1031 129.611 37.2806 130.402 37.2806ZM144.802 39.2179C143.785 39.2179 142.873 39.0484 142.066 38.7094C141.259 38.3542 140.621 37.8699 140.153 37.2564C139.685 36.6268 139.426 35.9084 139.378 35.1012H141.654C141.719 35.7631 142.026 36.3039 142.575 36.7237C143.14 37.1434 143.874 37.3533 144.778 37.3533C145.618 37.3533 146.28 37.1676 146.764 36.7963C147.248 36.425 147.49 35.9568 147.49 35.3918C147.49 34.8106 147.232 34.3828 146.716 34.1083C146.199 33.8177 145.4 33.5352 144.318 33.2608C143.333 33.0025 142.526 32.7441 141.897 32.4858C141.283 32.2114 140.75 31.8159 140.298 31.2992C139.862 30.7665 139.644 30.0723 139.644 29.2166C139.644 28.5386 139.846 27.917 140.25 27.352C140.653 26.787 141.227 26.343 141.969 26.0201C142.712 25.6811 143.559 25.5116 144.512 25.5116C145.981 25.5116 147.168 25.8829 148.072 26.6255C148.976 27.3681 149.46 28.3852 149.525 29.6768H147.321C147.273 28.9826 146.99 28.4256 146.473 28.0058C145.973 27.5861 145.295 27.3762 144.439 27.3762C143.648 27.3762 143.019 27.5457 142.55 27.8848C142.082 28.2238 141.848 28.6677 141.848 29.2166C141.848 29.6525 141.985 30.0158 142.26 30.3064C142.55 30.5808 142.906 30.8068 143.325 30.9844C143.761 31.1459 144.358 31.3315 145.117 31.5414C146.07 31.7997 146.845 32.058 147.442 32.3163C148.039 32.5585 148.548 32.9298 148.968 33.4303C149.404 33.9307 149.63 34.5846 149.646 35.3918C149.646 36.1183 149.444 36.7721 149.04 37.3533C148.637 37.9345 148.064 38.3946 147.321 38.7336C146.594 39.0565 145.755 39.2179 144.802 39.2179ZM154.96 28.1754C155.396 27.4166 156.042 26.787 156.898 26.2865C157.769 25.7699 158.778 25.5116 159.925 25.5116C161.103 25.5116 162.169 25.7941 163.121 26.3591C164.09 26.9242 164.848 27.7233 165.397 28.7565C165.946 29.7736 166.221 30.9602 166.221 32.3163C166.221 33.6563 165.946 34.851 165.397 35.9003C164.848 36.9497 164.09 37.765 163.121 38.3462C162.169 38.9274 161.103 39.2179 159.925 39.2179C158.794 39.2179 157.794 38.9677 156.922 38.4672C156.066 37.9506 155.412 37.3129 154.96 36.5542V45.2962H152.757V25.7295H154.96V28.1754ZM163.969 32.3163C163.969 31.3154 163.767 30.4436 163.363 29.701C162.96 28.9583 162.411 28.3933 161.717 28.0058C161.038 27.6184 160.288 27.4246 159.464 27.4246C158.657 27.4246 157.907 27.6265 157.212 28.0301C156.534 28.4175 155.985 28.9906 155.566 29.7494C155.162 30.492 154.96 31.3557 154.96 32.3405C154.96 33.3415 155.162 34.2213 155.566 34.9801C155.985 35.7227 156.534 36.2959 157.212 36.6995C157.907 37.0869 158.657 37.2806 159.464 37.2806C160.288 37.2806 161.038 37.0869 161.717 36.6995C162.411 36.2959 162.96 35.7227 163.363 34.9801C163.767 34.2213 163.969 33.3334 163.969 32.3163ZM170.26 23.5743C169.84 23.5743 169.485 23.429 169.194 23.1384C168.903 22.8478 168.758 22.4926 168.758 22.0729C168.758 21.6531 168.903 21.2979 169.194 21.0074C169.485 20.7168 169.84 20.5715 170.26 20.5715C170.663 20.5715 171.002 20.7168 171.277 21.0074C171.567 21.2979 171.713 21.6531 171.713 22.0729C171.713 22.4926 171.567 22.8478 171.277 23.1384C171.002 23.429 170.663 23.5743 170.26 23.5743ZM171.325 25.7295V39H169.121V25.7295H171.325ZM177.769 27.5457V35.3676C177.769 36.0133 177.906 36.4734 178.181 36.7479C178.455 37.0062 178.931 37.1354 179.609 37.1354H181.232V39H179.246C178.019 39 177.099 38.7175 176.485 38.1524C175.872 37.5874 175.565 36.6591 175.565 35.3676V27.5457H173.846V25.7295H175.565V22.3877H177.769V25.7295H181.232V27.5457H177.769ZM183.078 32.3163C183.078 30.9602 183.353 29.7736 183.902 28.7565C184.451 27.7233 185.201 26.9242 186.154 26.3591C187.123 25.7941 188.196 25.5116 189.375 25.5116C190.537 25.5116 191.546 25.7618 192.402 26.2623C193.257 26.7627 193.895 27.3924 194.315 28.1511V25.7295H196.543V39H194.315V36.5299C193.879 37.3049 193.225 37.9506 192.353 38.4672C191.498 38.9677 190.497 39.2179 189.35 39.2179C188.172 39.2179 187.106 38.9274 186.154 38.3462C185.201 37.765 184.451 36.9497 183.902 35.9003C183.353 34.851 183.078 33.6563 183.078 32.3163ZM194.315 32.3405C194.315 31.3396 194.113 30.4678 193.709 29.7252C193.306 28.9826 192.757 28.4175 192.063 28.0301C191.385 27.6265 190.634 27.4246 189.811 27.4246C188.987 27.4246 188.237 27.6184 187.558 28.0058C186.88 28.3933 186.34 28.9583 185.936 29.701C185.532 30.4436 185.331 31.3154 185.331 32.3163C185.331 33.3334 185.532 34.2213 185.936 34.9801C186.34 35.7227 186.88 36.2959 187.558 36.6995C188.237 37.0869 188.987 37.2806 189.811 37.2806C190.634 37.2806 191.385 37.0869 192.063 36.6995C192.757 36.2959 193.306 35.7227 193.709 34.9801C194.113 34.2213 194.315 33.3415 194.315 32.3405ZM202.47 21.08V39H200.267V21.08H202.47Z" fill="#014A7B"/>
</svg>
