<svg width="270" height="65" viewBox="0 0 270 65" fill="none" xmlns="http://www.w3.org/2000/svg">
<path d="M91.5618 2.03864H101.787C110.371 2.03864 115.914 7.38997 115.914 16.0063C115.914 24.6225 110.451 29.9739 101.834 29.9739H91.5618V2.03864ZM109.575 17.137V14.8595C109.575 10.1771 106.851 7.54923 102.185 7.54923H97.7413V24.4633H102.185C106.867 24.4633 109.575 21.8195 109.575 17.153V17.137Z" fill="#004646" style="fill:#004646;fill:color(display-p3 0.0000 0.2745 0.2745);fill-opacity:1;"/>
<path d="M119.274 9.63568H124.737V13.681H125.007C125.947 10.7665 127.954 9.63568 130.598 9.63568H131.904V15.5444H128.671C126.552 15.5444 125.326 16.6434 125.326 19.5261V29.9899H119.274V9.63568Z" fill="#004646" style="fill:#004646;fill:color(display-p3 0.0000 0.2745 0.2745);fill-opacity:1;"/>
<path d="M131.856 23.874H138.147V29.9739H131.856V23.874Z" fill="#004646" style="fill:#004646;fill:color(display-p3 0.0000 0.2745 0.2745);fill-opacity:1;"/>
<path d="M91.5618 36.679H110.244V42.2214H97.7254V48.2417H108.938V53.6726H97.7254V64.6142H91.5459V36.679H91.5618Z" fill="#004646" style="fill:#004646;fill:color(display-p3 0.0000 0.2745 0.2745);fill-opacity:1;"/>
<path d="M111.12 59.0558C111.12 55.4405 113.365 53.7522 117.411 53.0355L120.946 52.4463C123.192 52.0481 123.972 51.6977 123.972 50.4077C123.972 49.022 122.953 48.2894 121.106 48.2894C119.131 48.2894 117.841 49.0698 117.363 50.9969H111.454C112.553 46.426 115.945 43.9096 121.249 43.9096C126.839 43.9096 130.056 46.5375 130.056 51.427V64.6142H124.625V61.3014H124.355C123.208 63.6267 121.281 64.9646 118.334 64.9646C113.764 64.9646 111.104 62.8463 111.104 59.0558H111.12ZM124.068 56.5394V55.1538C123.319 55.7431 122.459 55.982 121.424 56.1412L119.577 56.412C118 56.6827 117.092 57.1605 117.092 58.4506V58.7213C117.092 60.0592 118.159 60.6485 119.927 60.6485C122.443 60.6485 124.052 59.1514 124.052 56.5235L124.068 56.5394Z" fill="#004646" style="fill:#004646;fill:color(display-p3 0.0000 0.2745 0.2745);fill-opacity:1;"/>
<path d="M132.732 58.1161H138.752C139.182 59.884 140.25 60.7122 142.495 60.7122C144.502 60.7122 145.728 60.0114 145.728 58.785V58.5143C145.728 57.6065 145.091 56.9057 143.292 56.6987L140.138 56.3483C135.854 55.9183 133.258 53.8637 133.258 50.2484C133.258 46.426 136.634 43.9096 141.906 43.9096C147.178 43.9096 150.331 46.2667 151.239 50.4714H145.298C144.82 48.8628 143.769 48.1461 141.922 48.1461C140.265 48.1461 139.135 48.7672 139.135 49.9617V50.2325C139.135 51.1721 139.883 51.841 141.699 52.1277L144.773 52.4781C149.487 53.0355 151.621 54.7556 151.621 58.2595C151.621 62.2411 148.038 64.9486 142.527 64.9486C136.666 64.9486 133.401 62.3844 132.764 58.1002L132.732 58.1161Z" fill="#004646" style="fill:#004646;fill:color(display-p3 0.0000 0.2745 0.2745);fill-opacity:1;"/>
<path d="M155.762 58.3551V49.1814H152.768V44.26H155.762V38.9883H161.814V44.26H165.907V49.1814H161.814V57.8454C161.814 59.024 162.371 59.5018 163.55 59.5018H165.907V64.6142H162.722C158.119 64.6142 155.762 62.3686 155.762 58.3551Z" fill="#004646" style="fill:#004646;fill:color(display-p3 0.0000 0.2745 0.2745);fill-opacity:1;"/>
<path d="M175.017 42.2214H166.911V36.679H189.383V42.2214H181.245V64.6142H175.033V42.2214H175.017Z" fill="#004646" style="fill:#004646;fill:color(display-p3 0.0000 0.2745 0.2745);fill-opacity:1;"/>
<path d="M188.937 44.276H194.4V48.3214H194.67C195.61 45.4068 197.617 44.276 200.261 44.276H201.567V50.1848H198.333C196.215 50.1848 194.989 51.2837 194.989 54.1664V64.6302H188.937V44.2919V44.276Z" fill="#004646" style="fill:#004646;fill:color(display-p3 0.0000 0.2745 0.2745);fill-opacity:1;"/>
<path d="M203.064 59.0558C203.064 55.4405 205.309 53.7522 209.355 53.0355L212.891 52.4463C215.136 52.0481 215.917 51.6977 215.917 50.4077C215.917 49.022 214.897 48.2894 213.05 48.2894C211.075 48.2894 209.785 49.0698 209.307 50.9969H203.398C204.497 46.426 207.89 43.9096 213.193 43.9096C218.783 43.9096 222.001 46.5375 222.001 51.427V64.6142H216.57V61.3014H216.299C215.152 63.6267 213.225 64.9646 210.279 64.9646C205.708 64.9646 203.032 62.8463 203.032 59.0558H203.064ZM215.996 56.5394V55.1538C215.248 55.7431 214.388 55.982 213.352 56.1412L211.505 56.412C209.928 56.6827 209.02 57.1605 209.02 58.4506V58.7213C209.02 60.0592 210.087 60.6485 211.855 60.6485C214.372 60.6485 215.98 59.1514 215.98 56.5235L215.996 56.5394Z" fill="#004646" style="fill:#004646;fill:color(display-p3 0.0000 0.2745 0.2745);fill-opacity:1;"/>
<path d="M224.899 54.4212C224.899 48.2416 229.072 43.9096 235.411 43.9096C240.874 43.9096 244.807 47.4135 245.604 52.1755H239.472C238.915 50.2006 237.656 48.9902 235.379 48.9902C232.624 48.9902 231.047 50.6466 231.047 53.5611V55.329C231.047 58.2435 232.624 59.8521 235.379 59.8521C237.577 59.8521 238.915 58.7532 239.472 56.619H245.652C244.791 61.62 240.889 64.9646 235.427 64.9646C229.088 64.9646 224.915 60.6007 224.915 54.4212H224.899Z" fill="#004646" style="fill:#004646;fill:color(display-p3 0.0000 0.2745 0.2745);fill-opacity:1;"/>
<path d="M248.502 36.679H254.555V52.5418L262.072 44.2759H268.841L261.594 52.3826L268.984 64.6142H262.183L257.151 56.6987L254.555 59.5655V64.5983H248.502V36.663V36.679Z" fill="#004646" style="fill:#004646;fill:color(display-p3 0.0000 0.2745 0.2745);fill-opacity:1;"/>
<path d="M32.0124 32.8407C32.0124 50.5192 17.6785 64.8531 0 64.8531V0.844177C17.6785 0.844177 32.0124 15.1781 32.0124 32.8566V32.8407Z" fill="#004646" style="fill:#004646;fill:color(display-p3 0.0000 0.2745 0.2745);fill-opacity:1;"/>
<path d="M67.3855 64.853C67.3855 48.1142 53.816 34.5288 37.0613 34.5288V64.853H67.3855Z" fill="#004646" style="fill:#004646;fill:color(display-p3 0.0000 0.2745 0.2745);fill-opacity:1;"/>
<path d="M50.949 31.1524C59.5515 31.1524 66.5252 24.1787 66.5252 15.5762C66.5252 6.9737 59.5515 0 50.949 0C42.3465 0 35.3728 6.9737 35.3728 15.5762C35.3728 24.1787 42.3465 31.1524 50.949 31.1524Z" fill="#004646" style="fill:#004646;fill:color(display-p3 0.0000 0.2745 0.2745);fill-opacity:1;"/>
</svg>
