<svg width="160" height="64" viewBox="0 0 160 64" fill="none" xmlns="http://www.w3.org/2000/svg">
<path d="M0 28.7147V0H9.50644C12.8086 0 15.54 0.595963 17.6911 1.78297C19.8421 2.9749 21.4419 4.63966 22.4857 6.78711C23.5296 8.93455 24.0515 11.4563 24.0515 14.3573C24.0515 17.2584 23.5296 19.7801 22.4857 21.9276C21.4419 24.075 19.8518 25.7447 17.7106 26.9317C15.5693 28.1236 12.8378 28.7147 9.50644 28.7147H0ZM5.48242 23.9568H9.21867C11.5453 23.9568 13.3841 23.5726 14.7255 22.8092C16.0668 22.0458 17.0228 20.9425 17.5886 19.5092C18.1544 18.076 18.4422 16.357 18.4422 14.3623C18.4422 12.3675 18.1593 10.6092 17.5886 9.17097C17.018 7.7377 16.0668 6.63442 14.7255 5.871C13.3841 5.10757 11.5502 4.72339 9.21867 4.72339H5.48242V23.9617V23.9568Z" fill="#096F90"/>
<path d="M25.3486 28.7149V8.04327H30.2214L30.7481 11.8604C31.2359 10.9591 31.8505 10.1907 32.5967 9.5652C33.343 8.93476 34.1966 8.44222 35.1575 8.0876C36.1184 7.73298 37.1817 7.55566 38.3474 7.55566V13.4217H36.4793C35.6648 13.4217 34.9136 13.5153 34.2259 13.7074C33.5332 13.8995 32.9333 14.2049 32.4163 14.6284C31.9041 15.052 31.509 15.6332 31.2408 16.372C30.9676 17.1108 30.8359 18.0417 30.8359 19.1597V28.7149H25.3535H25.3486Z" fill="#096F90"/>
<path d="M39.5672 28.9165C38.538 28.9165 37.7137 28.6111 37.0893 27.9955C36.465 27.3798 36.1528 26.6213 36.1528 25.72C36.1528 24.8186 36.465 24.0601 37.0893 23.4445C37.7137 22.8288 38.538 22.5234 39.5672 22.5234C40.5427 22.5234 41.3426 22.8288 41.9621 23.4445C42.5864 24.0601 42.8986 24.8186 42.8986 25.72C42.8986 26.6213 42.5864 27.3798 41.9621 27.9955C41.3377 28.6111 40.5378 28.9165 39.5672 28.9165Z" fill="#096F90"/>
<path d="M0 63.5018V34.7871H18.5251V39.2593H5.4873V46.9281H15.9254V51.2771H5.4873V63.5018H0.00487492H0Z" fill="#096F90"/>
<path d="M24.3734 63.9946C22.6662 63.9946 21.2566 63.7139 20.1494 63.1524C19.0373 62.5909 18.2178 61.8423 17.691 60.8966C17.1643 59.9509 16.9009 58.9068 16.9009 57.7592C16.9009 56.5032 17.2179 55.395 17.8569 54.4346C18.491 53.479 19.4567 52.7255 20.7395 52.1787C22.0272 51.632 23.6417 51.3562 25.5928 51.3562H30.6703C30.6703 50.3465 30.5338 49.5043 30.2655 48.8344C29.9924 48.1646 29.5729 47.6671 29.0071 47.3371C28.4364 47.0072 27.6804 46.8446 26.7341 46.8446C25.705 46.8446 24.8319 47.0712 24.1148 47.5194C23.3978 47.9725 22.9589 48.6621 22.793 49.5929H17.4716C17.6081 48.1153 18.0861 46.8397 18.9153 45.7561C19.7396 44.6775 20.8371 43.8352 22.2077 43.2343C23.5734 42.6335 25.1001 42.333 26.778 42.333C28.6998 42.333 30.3679 42.663 31.7727 43.3181C33.1774 43.9731 34.2651 44.9188 35.0212 46.1501C35.7772 47.3815 36.1576 48.8985 36.1576 50.7011V63.4972H31.5288L30.9191 60.34C30.6216 60.8867 30.2704 61.3793 29.8607 61.8176C29.4558 62.256 28.9827 62.6401 28.4413 62.9652C27.8999 63.2952 27.2902 63.5464 26.6122 63.7237C25.9342 63.901 25.1879 63.9897 24.3782 63.9897L24.3734 63.9946ZM25.6708 59.7293C26.3732 59.7293 27.0024 59.6012 27.5584 59.3402C28.1145 59.0791 28.5925 58.7245 29.0022 58.2714C29.4119 57.8182 29.729 57.3011 29.9582 56.715C30.1875 56.1289 30.3435 55.4935 30.4265 54.8089V54.7695H26.2415C25.4025 54.7695 24.7197 54.8729 24.188 55.0748C23.6612 55.2817 23.2759 55.5723 23.032 55.9565C22.7881 56.3407 22.6662 56.779 22.6662 57.2715C22.6662 57.8182 22.7881 58.2714 23.032 58.626C23.2759 58.9806 23.6271 59.2565 24.0905 59.4485C24.549 59.6406 25.0806 59.7342 25.6757 59.7342L25.6708 59.7293Z" fill="#096F90"/>
<path d="M46.3908 63.9952C44.5227 63.9952 42.8984 63.6947 41.518 63.0939C40.1377 62.493 39.0549 61.6606 38.2696 60.5918C37.4843 59.5279 37.0355 58.3212 36.9282 56.9815H42.3716C42.5082 57.4987 42.7374 57.9715 43.0642 58.3951C43.391 58.8187 43.8203 59.1536 44.3617 59.3999C44.9031 59.6461 45.5518 59.7693 46.3127 59.7693C47.0736 59.7693 47.6394 59.6658 48.0979 59.4639C48.5564 59.257 48.9027 58.9763 49.132 58.6217C49.3612 58.267 49.4783 57.8976 49.4783 57.5135C49.4783 56.9372 49.3173 56.4939 48.9905 56.1787C48.6637 55.8635 48.1906 55.6123 47.5712 55.4202C46.9468 55.2281 46.1908 55.036 45.2982 54.8439C44.3227 54.6518 43.3667 54.4105 42.435 54.1248C41.4985 53.8392 40.6693 53.4747 39.9377 53.0363C39.2061 52.598 38.6256 52.0365 38.1915 51.3519C37.7574 50.6672 37.5428 49.8201 37.5428 48.8104C37.5428 47.5791 37.8696 46.4807 38.5183 45.5055C39.167 44.5352 40.1182 43.7619 41.362 43.1857C42.6057 42.6094 44.1081 42.3237 45.8689 42.3237C48.3321 42.3237 50.2831 42.8852 51.7171 44.0033C53.1511 45.1262 54.0047 46.6679 54.2778 48.638H49.1174C48.9564 48.0076 48.5954 47.5101 48.0394 47.1407C47.4834 46.7713 46.7468 46.5891 45.825 46.5891C44.8495 46.5891 44.1032 46.7664 43.591 47.121C43.0789 47.4756 42.8204 47.9435 42.8204 48.5149C42.8204 48.8991 42.9911 49.2389 43.3276 49.5393C43.6642 49.8398 44.1471 50.091 44.7714 50.2978C45.3957 50.5047 46.1518 50.7017 47.0444 50.8938C48.615 51.2238 49.9953 51.5981 51.1903 52.0217C52.3805 52.4453 53.317 53.0462 53.995 53.8244C54.6729 54.6026 55.0095 55.7305 55.0095 57.2081C55.0095 58.5182 54.6583 59.6905 53.9511 60.7149C53.2438 61.7394 52.2537 62.5422 50.966 63.1136C49.6783 63.6849 48.1565 63.9755 46.3956 63.9755L46.3908 63.9952Z" fill="#096F90"/>
<path d="M64.994 63.5019C63.56 63.5019 62.3065 63.2754 61.2383 62.8222C60.1701 62.3691 59.336 61.6204 58.7409 60.5664C58.1459 59.5124 57.8483 58.0693 57.8483 56.2371V47.4601H54.356V42.8254H57.8483L58.458 37.2056H63.3307V42.8254H68.7351V47.4601H63.3307V56.3208C63.3307 57.2517 63.5356 57.892 63.9404 58.2466C64.3453 58.6012 65.0379 58.7785 66.0134 58.7785H68.6961V63.497H64.9989L64.994 63.5019Z" fill="#096F90"/>
<path d="M79.3344 63.5019C77.9003 63.5019 76.6468 63.2754 75.5786 62.8222C74.5104 62.3691 73.6763 61.6204 73.0813 60.5664C72.4862 59.5124 72.1887 58.0693 72.1887 56.2371V47.4601H68.6963V42.8254H72.1887L72.7984 37.2056H77.6711V42.8254H83.0755V47.4601H77.6711V56.3208C77.6711 57.2517 77.8759 57.892 78.2808 58.2466C78.6856 58.6012 79.3783 58.7785 80.3538 58.7785H83.0365V63.497H79.3392L79.3344 63.5019Z" fill="#096F90"/>
<path d="M84.4512 63.502V42.8304H89.3239L89.8507 46.6475C90.3384 45.7462 90.953 44.9778 91.6993 44.3523C92.4456 43.7219 93.2991 43.2293 94.26 42.8747C95.2209 42.5201 96.2842 42.3428 97.45 42.3428V48.2088H95.5819C94.7673 48.2088 94.0161 48.3074 93.3284 48.4945C92.6358 48.6866 92.0358 48.992 91.5188 49.4156C91.0067 49.8391 90.6116 50.4203 90.3384 51.1591C90.0653 51.8979 89.9336 52.8288 89.9336 53.9469V63.502H84.4512Z" fill="#096F90"/>
<path d="M104.722 63.9946C103.015 63.9946 101.61 63.7139 100.498 63.1524C99.3859 62.5909 98.5665 61.8423 98.0397 60.8966C97.5129 59.9509 97.2495 58.9068 97.2495 57.7592C97.2495 56.5032 97.5666 55.395 98.2055 54.4346C98.8396 53.479 99.8054 52.7255 101.088 52.1787C102.376 51.632 103.99 51.3562 105.941 51.3562H111.019C111.019 50.3465 110.882 49.5043 110.614 48.8344C110.341 48.1646 109.922 47.6671 109.356 47.3371C108.785 47.0072 108.029 46.8446 107.083 46.8446C106.054 46.8446 105.18 47.0712 104.463 47.5194C103.746 47.9725 103.308 48.6621 103.142 49.5929H97.8202C97.9568 48.1153 98.4348 46.8397 99.264 45.7561C100.088 44.6775 101.186 43.8352 102.556 43.2343C103.922 42.6335 105.449 42.333 107.127 42.333C109.048 42.333 110.717 42.663 112.121 43.3181C113.526 43.9731 114.614 44.9188 115.37 46.1501C116.126 47.3815 116.506 48.8985 116.506 50.7011V63.4972H111.877L111.268 60.34C110.97 60.8867 110.619 61.3793 110.209 61.8176C109.804 62.256 109.331 62.6401 108.79 62.9652C108.249 63.2952 107.639 63.5464 106.961 63.7237C106.283 63.901 105.541 63.9897 104.727 63.9897L104.722 63.9946ZM106.024 59.7293C106.727 59.7293 107.356 59.6012 107.912 59.3402C108.468 59.0791 108.946 58.7245 109.356 58.2714C109.761 57.8182 110.078 57.3011 110.312 56.715C110.541 56.1289 110.697 55.4935 110.78 54.8089V54.7695H106.595C105.756 54.7695 105.073 54.8729 104.542 55.0748C104.015 55.2817 103.629 55.5723 103.386 55.9565C103.142 56.3407 103.02 56.779 103.02 57.2715C103.02 57.8182 103.142 58.2714 103.386 58.626C103.629 58.9806 103.981 59.2565 104.444 59.4485C104.902 59.6406 105.434 59.7342 106.029 59.7342L106.024 59.7293Z" fill="#096F90"/>
<path d="M128.281 63.9951C126.222 63.9951 124.393 63.5321 122.798 62.6012C121.198 61.6703 119.955 60.3996 119.062 58.7841C118.169 57.1686 117.721 55.3265 117.721 53.248C117.721 51.1695 118.169 49.2338 119.062 47.6085C119.955 45.9831 121.203 44.6976 122.798 43.7519C124.393 42.8063 126.222 42.3384 128.281 42.3384C130.905 42.3384 133.114 43.0378 134.9 44.4316C136.685 45.8255 137.826 47.7415 138.314 50.1746H132.505C132.261 49.2191 131.754 48.4655 130.983 47.9188C130.212 47.3721 129.295 47.0963 128.242 47.0963C127.295 47.0963 126.447 47.3376 125.7 47.8153C124.954 48.2931 124.374 48.9925 123.954 49.9086C123.535 50.8247 123.325 51.9132 123.325 53.1692C123.325 54.1247 123.447 54.9817 123.691 55.7353C123.935 56.4889 124.271 57.1292 124.705 57.6611C125.14 58.193 125.661 58.5969 126.271 58.8727C126.881 59.1485 127.534 59.2815 128.242 59.2815C128.949 59.2815 129.588 59.1584 130.173 58.9121C130.754 58.6659 131.251 58.3162 131.656 57.868C132.061 57.4148 132.349 56.8632 132.51 56.2081H138.319C137.831 58.587 136.685 60.4833 134.885 61.887C133.085 63.2957 130.885 64 128.286 64L128.281 63.9951Z" fill="#096F90"/>
<path d="M139.777 63.5025V33.9702H145.26V63.5025H139.777ZM153.181 63.5025L144.445 52.1792L152.284 42.826H158.741L148.625 54.5187V50.1302L160 63.5025H153.176H153.181Z" fill="#096F90"/>
</svg>
