<svg width="60" height="59" viewBox="0 0 60 59" fill="none" xmlns="http://www.w3.org/2000/svg">
<circle cx="30.0001" cy="29.2501" r="29.2501" fill="#418779" style="fill:#418779;fill:color(display-p3 0.2549 0.5294 0.4745);fill-opacity:1;"/>
<path fill-rule="evenodd" clip-rule="evenodd" d="M38.7898 30.3248C40.4795 28.3565 41.5007 25.7975 41.5007 23C41.5007 16.7868 36.4639 11.75 30.2507 11.75C24.0375 11.75 19.0007 16.7868 19.0007 23C19.0007 23.2236 19.0072 23.4457 19.0201 23.6661C19.0216 23.6925 19.0163 23.7189 19.0045 23.7425L16.7742 28.2031C16.366 29.0195 16.7755 30.0083 17.6415 30.2969L20.9694 31.4062C21.0307 31.4267 21.072 31.484 21.072 31.5485V33.4286C21.072 33.5086 21.1347 33.5746 21.2145 33.5785L30.4738 34.0378C32.8694 34.1567 34.7507 36.1337 34.7507 38.5324V44.6C34.7507 44.6828 34.8179 44.75 34.9007 44.75H39.8372C39.9253 44.75 39.9943 44.6747 39.9866 44.587L38.7536 30.4363C38.7502 30.3958 38.7632 30.3555 38.7898 30.3248ZM32.3296 23.9647C33.2302 23.4243 34.3759 24.0731 34.3759 25.1233V26.3059C34.3759 27.0713 33.9434 27.7709 33.2588 28.1132L31.9978 28.7438C31.442 29.0217 31.2167 29.6975 31.4947 30.2531C31.7725 30.8088 32.4482 31.0342 33.004 30.7562L34.265 30.1257C35.7119 29.4023 36.6259 27.9235 36.6259 26.3059V25.1233C36.6259 22.3242 33.5722 20.5952 31.172 22.0353C30.6392 22.355 30.4664 23.046 30.7861 23.5788C31.1057 24.1116 31.7968 24.2843 32.3296 23.9647Z" fill="#F3F3E9" style="fill:#F3F3E9;fill:color(display-p3 0.9529 0.9529 0.9137);fill-opacity:1;"/>
<path d="M27.5753 41.1325L27.9845 44.6175C27.9934 44.693 28.0574 44.75 28.1335 44.75H30.8473C30.9311 44.75 30.9988 44.6811 30.9971 44.5973L30.8887 38.7223C30.8735 37.9048 30.2065 37.25 29.3888 37.25H21.2262C21.1414 37.25 21.0735 37.3202 21.0763 37.4048L21.1458 39.5486C21.172 40.3577 21.8355 41 22.645 41H27.4264C27.5024 41 27.5665 41.057 27.5753 41.1325Z" fill="#F3F3E9" style="fill:#F3F3E9;fill:color(display-p3 0.9529 0.9529 0.9137);fill-opacity:1;"/>
</svg>
