<svg width="36" height="37" viewBox="0 0 36 37" fill="none" xmlns="http://www.w3.org/2000/svg">
<path d="M18.2221 36.2833C28.0405 36.2833 35.9999 28.3488 35.9999 18.5611C35.9999 8.77338 28.0405 0.838867 18.2221 0.838867C8.40372 0.838867 0.444336 8.77338 0.444336 18.5611C0.444336 28.3488 8.40372 36.2833 18.2221 36.2833Z" fill="#E7F9FF"/>
<path d="M20.0137 27.623V19.3688H22.704L23.1039 16.137H20.0137V14.0785C20.0137 13.1459 20.2647 12.5074 21.5578 12.5074H23.1963V9.62612C22.3991 9.53769 21.5978 9.49499 20.796 9.49822C18.418 9.49822 16.7853 11.0008 16.7853 13.7593V16.131H14.1125V19.3628H16.7912V27.623H20.0137Z" fill="#096F90"/>
</svg>
