<svg width="60" height="59" viewBox="0 0 60 59" fill="none" xmlns="http://www.w3.org/2000/svg">
<circle cx="30.0001" cy="29.2501" r="29.2501" fill="#418779" style="fill:#418779;fill:color(display-p3 0.2549 0.5294 0.4745);fill-opacity:1;"/>
<path fill-rule="evenodd" clip-rule="evenodd" d="M24.4736 30.0333L23.9692 29.523C23.6755 29.226 23.6759 28.7439 23.97 28.4465L26.4079 25.9805L26.6997 26.2869L31.2186 30.8579L31.8766 31.5371L29.451 33.9906C29.1568 34.2882 28.6804 34.2885 28.3867 33.9915L26.0554 31.6334L22.9299 34.7909L23.2683 35.6049C24.0751 37.5462 24.0483 39.4656 23.4503 41.1254H33.4629C34.0842 41.1254 34.5879 41.6291 34.5879 42.2504C34.5879 42.8717 34.0842 43.3754 33.4629 43.3754H13.982C13.6897 43.3803 13.3957 43.272 13.1714 43.05C13.045 42.9249 12.9545 42.7772 12.8999 42.6197L26.0554 31.6334L12.8379 42.2499C12.838 42.0177 12.9084 41.802 13.0289 41.6229C13.0715 41.5596 13.1204 41.501 13.1747 41.4476L24.4649 30.0419C24.4678 30.039 24.4707 30.0362 24.4736 30.0333ZM16.6596 41.1254H20.9882C21.7025 39.8309 21.8988 38.2184 21.2137 36.5247L16.6596 41.1254Z" fill="#F3F3E9" style="fill:#F3F3E9;fill:color(display-p3 0.9529 0.9529 0.9137);fill-opacity:1;"/>
<path d="M28.3144 24.72L27.9902 24.3794L29.4176 22.9355L29.7029 23.2348L29.717 23.2493L34.2271 27.8112L34.8841 28.4943L33.4585 29.9363L32.8303 29.2878L32.8223 29.2797L28.3144 24.72Z" fill="#F3F3E9" style="fill:#F3F3E9;fill:color(display-p3 0.9529 0.9529 0.9137);fill-opacity:1;"/>
<path d="M31.3241 21.6746L31 21.3347L38.8433 13.4012C40.3591 11.8679 42.8149 11.866 44.3284 13.397C45.8419 14.9279 45.8401 17.4119 44.3244 18.9451L36.4663 26.8936L35.8432 26.2458L35.8324 26.2348L31.3241 21.6746Z" fill="#F3F3E9" style="fill:#F3F3E9;fill:color(display-p3 0.9529 0.9529 0.9137);fill-opacity:1;"/>
</svg>
