<svg width="36" height="37" viewBox="0 0 36 37" fill="none" xmlns="http://www.w3.org/2000/svg">
<path d="M17.778 36.2833C27.5964 36.2833 35.5558 28.3488 35.5558 18.5611C35.5558 8.77338 27.5964 0.838867 17.778 0.838867C7.95963 0.838867 0.000244141 8.77338 0.000244141 18.5611C0.000244141 28.3488 7.95963 36.2833 17.778 36.2833Z" fill="#E7F9FF"/>
<path d="M18.1314 15.9667C16.699 15.9667 15.53 17.133 15.53 18.5621C15.53 19.9912 16.699 21.1575 18.1314 21.1575C19.5639 21.1575 20.7329 19.9912 20.7329 18.5621C20.7329 17.133 19.5639 15.9667 18.1314 15.9667ZM25.9339 18.5621C25.9339 17.4874 25.9437 16.4223 25.8832 15.3495C25.8227 14.1034 25.5377 12.9975 24.6244 12.0863C23.7091 11.1732 22.6025 10.8909 21.3535 10.8305C20.2762 10.7701 19.2087 10.7799 18.1334 10.7799C17.0561 10.7799 15.9886 10.7701 14.9133 10.8305C13.6642 10.8909 12.5557 11.1751 11.6424 12.0863C10.7271 12.9995 10.4441 14.1034 10.3836 15.3495C10.3231 16.4243 10.3329 17.4893 10.3329 18.5621C10.3329 19.6349 10.3231 20.7019 10.3836 21.7747C10.4441 23.0208 10.729 24.1267 11.6424 25.0379C12.5577 25.9511 13.6642 26.2334 14.9133 26.2937C15.9905 26.3541 17.0581 26.3444 18.1334 26.3444C19.2107 26.3444 20.2782 26.3541 21.3535 26.2937C22.6025 26.2334 23.711 25.9491 24.6244 25.0379C25.5397 24.1248 25.8227 23.0208 25.8832 21.7747C25.9456 20.7019 25.9339 19.6369 25.9339 18.5621ZM18.1314 22.5555C15.9164 22.5555 14.1287 20.772 14.1287 18.5621C14.1287 16.3523 15.9164 14.5688 18.1314 14.5688C20.3465 14.5688 22.1342 16.3523 22.1342 18.5621C22.1342 20.772 20.3465 22.5555 18.1314 22.5555ZM22.2981 15.3379C21.7809 15.3379 21.3633 14.9212 21.3633 14.4052C21.3633 13.8893 21.7809 13.4726 22.2981 13.4726C22.8153 13.4726 23.2329 13.8893 23.2329 14.4052C23.2331 14.5277 23.209 14.6491 23.1621 14.7623C23.1151 14.8755 23.0463 14.9784 22.9594 15.065C22.8726 15.1517 22.7695 15.2204 22.656 15.2672C22.5425 15.314 22.4209 15.338 22.2981 15.3379Z" fill="#096F90"/>
</svg>
