<svg width="99" height="84" viewBox="0 0 99 84" fill="none" xmlns="http://www.w3.org/2000/svg">
<g clip-path="url(#clip0_2343_246)">
<path d="M85.0673 61.6328V72.0606C85.0673 78.1143 80.1282 83.0183 74.0313 83.0183H31C31.8594 83.0183 32.7639 82.9105 33.6776 82.686C38.3091 81.5004 41.7284 77.3239 41.7284 72.366V61.6328H85.0673Z" fill="#4A9CB9"/>
<path d="M20.2806 10.0775V29.0199H0.732422V9.69128C0.732422 7.00574 1.82697 4.58068 3.59997 2.82924C5.36392 1.08679 7.81535 0 10.511 0C10.5653 0 10.6015 0 10.6558 0.00898172H10.8005C11.0266 0.00898172 11.2618 0.0179634 11.4699 0.0449086C11.5242 0.0449086 11.5603 0.0449086 11.6056 0.0538903C11.877 0.0808355 12.1483 0.116762 12.4016 0.170653C12.4921 0.179634 12.5916 0.20658 12.682 0.233525C12.881 0.269452 13.0891 0.323342 13.2881 0.395196C13.46 0.431123 13.6499 0.502976 13.8309 0.565848C13.9213 0.57483 14.0027 0.619739 14.0751 0.655666C17.7658 2.13765 20.2806 5.89201 20.2806 10.0505V10.0775Z" fill="#4A9CB9"/>
<path d="M73.5704 44.6665V61.642H41.7289V72.3751C41.7289 77.333 38.3095 81.5095 33.678 82.6951C32.7644 82.9196 31.8598 83.0274 31.0005 83.0274C25.0754 83.0274 20.2811 78.2581 20.2811 72.3751V10.0779C20.2811 5.91935 17.7663 2.16499 14.0756 0.683009C14.0123 0.647083 13.9309 0.602174 13.8314 0.593192C13.6595 0.512357 13.4786 0.458466 13.2886 0.422539C13.0896 0.341704 12.8815 0.287814 12.6825 0.260868C12.5921 0.233923 12.4926 0.206978 12.4021 0.197996C12.1488 0.144106 11.8774 0.108179 11.6061 0.0812341C11.5699 0.0722524 11.5247 0.0722524 11.4704 0.0722524C11.4071 0.0632706 11.3347 0.0453072 11.2714 0.0453072C11.1266 0.0363255 10.9638 0.018362 10.801 0.0363255C10.7467 0.0273438 10.7105 0.0273438 10.6562 0.0273438H62.1002C68.4414 0.0273438 73.5704 5.11998 73.5704 11.4162V25.3109" fill="white"/>
<path d="M46.3329 16.3534H40.5164V10.5781H33.5782V16.3534H27.7617V23.2423H33.5782V29.0266H40.5164V23.2423H46.3329V16.3534Z" fill="#136781"/>
<path d="M97.2882 46.0315C95.7866 49.211 92.6115 51.0792 89.2916 51.0792C88.0342 51.0792 86.7588 50.8098 85.5466 50.2439L74.3297 45.0166L63.1219 39.7892C58.7075 37.7324 56.8078 32.505 58.8793 28.1219C60.381 24.9424 63.5651 23.0742 66.885 23.0742C68.1423 23.0742 69.4178 23.3437 70.63 23.9095L81.8378 29.1369L93.0547 34.3642C97.4691 36.4211 99.3687 41.6484 97.2882 46.0315Z" fill="#136781"/>
<path d="M97.2885 46.0313C95.7869 49.2109 92.6118 51.0791 89.292 51.0791C88.0346 51.0791 86.7591 50.8096 85.547 50.2438L74.3301 45.0164L81.8382 29.1367L93.0551 34.3641C97.4695 36.4209 99.3691 41.6483 97.2885 46.0313Z" fill="#4A9CB9"/>
<path opacity="0.5" d="M50.8468 36.0156H27.7617V39.7251H50.8468V36.0156Z" fill="#4A9CB9"/>
<path opacity="0.5" d="M50.8468 42.8516H27.7617V46.561H50.8468V42.8516Z" fill="#4A9CB9"/>
<path opacity="0.5" d="M50.8468 49.6953H27.7617V53.4048H50.8468V49.6953Z" fill="#4A9CB9"/>
</g>
<defs>
<clipPath id="clip0_2343_246">
<rect width="97.3971" height="83.027" fill="white" transform="translate(0.732422)"/>
</clipPath>
</defs>
</svg>
