<svg width="81" height="84" viewBox="0 0 81 84" fill="none" xmlns="http://www.w3.org/2000/svg">
<g clip-path="url(#clip0_2343_225)">
<path d="M80.9462 26.0289V36.9147H0.302734V26.0289C0.302734 19.6576 5.3191 14.4514 11.6168 14.151C11.8076 14.1419 11.9985 14.1328 12.1893 14.1328H24.503V28.7049H56.7459V14.1328H69.0687C69.2595 14.1328 69.4504 14.1328 69.6321 14.151C75.9298 14.4423 80.9462 19.6576 80.9462 26.0289Z" fill="#136781"/>
<path d="M75.0949 36.918H6.15625V73.5347H75.0949V36.918Z" fill="white"/>
<path d="M56.8271 47.7734H50.793V53.8171H56.8271V47.7734Z" fill="#3B8DA6"/>
<path d="M65.5869 47.7734H59.5527V53.8171H65.5869V47.7734Z" fill="#3B8DA6"/>
<path d="M56.8271 56.2656H50.793V62.3092H56.8271V56.2656Z" fill="#3B8DA6"/>
<path d="M65.5869 56.2656H59.5527V62.3092H65.5869V56.2656Z" fill="#3B8DA6"/>
<g style="mix-blend-mode:multiply">
<path d="M40.2694 45.0469H15.4512V73.5356H40.2694V45.0469Z" fill="#4FA0B9"/>
</g>
<g style="mix-blend-mode:lighten" opacity="0.5">
<path d="M27.8558 45.0469H15.4512V73.5356H27.8558V45.0469Z" fill="#62B3CB"/>
</g>
<path d="M13.4347 14.1367V36.9186H11.6172V14.1549C11.808 14.1458 11.9989 14.1367 12.1897 14.1367H13.4347Z" fill="#88C5D7"/>
<path d="M69.632 14.1549V36.9186H67.8145V14.1367H69.0685C69.2594 14.1367 69.4502 14.1367 69.632 14.1549Z" fill="#88C5D7"/>
<path d="M26.3214 29.8729V36.9177H24.5039V29.8729C24.5039 29.3996 24.6402 28.9809 24.8401 28.7079C24.9946 28.4985 25.1946 28.3711 25.4127 28.3711C25.6308 28.3711 25.8307 28.4985 25.9852 28.7079C26.1851 28.9809 26.3214 29.3996 26.3214 29.8729Z" fill="#88C5D7"/>
<path d="M56.7472 29.7453V36.9175H54.9297V29.7453C54.9297 29.3448 55.0206 28.9807 55.1751 28.7077C55.3477 28.4164 55.5749 28.2344 55.8384 28.2344C56.102 28.2344 56.3292 28.4164 56.5018 28.7077C56.6563 28.9807 56.7472 29.3448 56.7472 29.7453Z" fill="#88C5D7"/>
<path d="M41.5343 29.7453V36.9175H39.7168V29.7453C39.7168 29.3448 39.8077 28.9807 39.9622 28.7077C40.1348 28.4164 40.362 28.2344 40.6256 28.2344C40.8891 28.2344 41.1163 28.4164 41.289 28.7077C41.4434 28.9807 41.5343 29.3448 41.5343 29.7453Z" fill="#88C5D7"/>
<path d="M56.7468 0H24.5039V28.7163H56.7468V0Z" fill="white"/>
<path d="M48.0671 11.5677H43.4052V6.89844H37.8436V11.5677H33.1816V17.138H37.8436V21.8073H43.4052V17.138H48.0671V11.5677Z" fill="#136781"/>
<path d="M76.2025 83.0284H5.04647C2.42924 83.0284 0.302734 80.9077 0.302734 78.2863C0.302734 75.665 2.42924 73.5352 5.04647 73.5352H76.2115C78.8288 73.5352 80.9553 75.665 80.9553 78.2863C80.9553 80.9077 78.8288 83.0375 76.2115 83.0375L76.2025 83.0284Z" fill="#136781"/>
<path opacity="0.3" d="M6.15625 36.918L75.0949 44.0902V36.918H6.15625Z" fill="#C7F2FF"/>
</g>
<defs>
<clipPath id="clip0_2343_225">
<rect width="80.6435" height="83.027" fill="white" transform="translate(0.302734)"/>
</clipPath>
</defs>
</svg>
