<svg width="96" height="84" viewBox="0 0 96 84" fill="none" xmlns="http://www.w3.org/2000/svg">
<path fill-rule="evenodd" clip-rule="evenodd" d="M15.2391 61.0571L4.70433 80.1789L2.56445 80.706L3.78254 76.3578L16.7041 53.3984L15.2391 61.0571Z" fill="#9DCBDC"/>
<path fill-rule="evenodd" clip-rule="evenodd" d="M16.9999 23.2064L23.041 20.5547L31.1725 23.2064L39.123 20.5547L48.0611 23.2064L56.9663 20.5547L64.9167 23.2064L73.0648 20.5547L79.1058 23.2064L95.8792 83.026L84.5049 79.9296L72.1759 83.026L60.2749 79.9296L48.0775 83.026L35.8309 79.9296L23.9463 83.026L11.6008 79.9296L0.226562 83.026L16.9999 23.2064Z" fill="#4A9CB9"/>
<path fill-rule="evenodd" clip-rule="evenodd" d="M73.0664 20.5547L79.1074 23.2064L95.8808 83.026L84.5065 79.9296L73.0664 20.5547Z" fill="#9DCBDC"/>
<path fill-rule="evenodd" clip-rule="evenodd" d="M56.9668 20.5547L64.9173 23.2064L72.1764 83.026L60.2754 79.9296L56.9668 20.5547Z" fill="#9DCBDC"/>
<path fill-rule="evenodd" clip-rule="evenodd" d="M39.1242 20.5547L48.0623 23.2064L48.0787 83.026L35.832 79.9296L39.1242 20.5547Z" fill="#9DCBDC"/>
<path fill-rule="evenodd" clip-rule="evenodd" d="M23.0417 20.5547L31.1732 23.2064L23.947 83.026L11.6016 79.9296L23.0417 20.5547Z" fill="#9DCBDC"/>
<g style="mix-blend-mode:multiply">
<path fill-rule="evenodd" clip-rule="evenodd" d="M91.0723 71.8614L80.4058 62.2758L69.2949 59.2947L69.0644 59.2123L58.5955 52.0149L47.9784 52.5584L47.5833 52.5749L47.2706 52.3278L37.1638 44.4221L28.6536 42.4787L20.4892 33.486L20.3081 33.3377L17.8555 26.1732L18.2999 24.3944L19.0571 24.0156L21.7731 31.7401L29.2956 40.354L38.0033 42.4128L48.2747 50.4008L58.6778 49.742L69.015 56.89L80.735 60.1676L80.8996 60.217L90.2657 68.6827L91.0723 71.8614Z" fill="#9DCBDC"/>
</g>
<path fill-rule="evenodd" clip-rule="evenodd" d="M81.2453 63.0169L80.4058 62.2758L69.2949 59.2947L68.9986 56.89L80.6692 60.1676L81.2288 63.0334L81.2453 63.0169ZM58.7272 52.0808L58.6119 51.9984L48.0771 52.5419V50.2361L48.2747 50.4008L58.5955 49.742L58.7272 52.0808ZM37.7893 44.8998L37.1638 44.4221L28.8512 42.5116L29.131 40.1399L29.3121 40.3375L37.921 42.3798L37.7893 44.8833V44.8998ZM20.5385 33.5354L20.4892 33.486L20.3081 33.3377L17.8555 26.1732L18.2999 24.3944L19.0571 24.0156L21.1805 30.1096L20.5221 33.5518L20.5385 33.5354Z" fill="#9DCBDC"/>
<g style="mix-blend-mode:multiply">
<path fill-rule="evenodd" clip-rule="evenodd" d="M28.8685 41.4718L15.305 60.923L4.70433 80.1766L2.56445 80.7037L3.78254 76.3555L16.5889 53.5609L26.7451 39.8906L28.8685 41.4718Z" fill="#9DCBDC"/>
</g>
<path fill-rule="evenodd" clip-rule="evenodd" d="M48.0444 0C62.7767 0 73.6943 11.9851 74.7106 26.6816C75.2147 33.9705 73.4411 38.1513 69.8547 44.7494C63.5201 56.4037 47.995 70.7466 47.995 70.7466C47.995 70.7466 31.3864 56.5956 26.0531 44.2718C23.2301 37.7486 20.9214 33.7748 21.3782 26.6816C22.3251 11.9805 33.3286 0 48.0444 0Z" fill="#136781"/>
<path d="M69.5697 28.3877C69.7688 16.4974 60.2969 6.69699 48.4136 6.49775C36.5302 6.29851 26.7355 15.7759 26.5363 27.6662C26.3372 39.5564 35.8091 49.3568 47.6925 49.5561C59.5758 49.7553 69.3706 40.2779 69.5697 28.3877Z" fill="#9DCBDC"/>
<path d="M59.4967 40.4218V22.8452L48.2228 15.1921C47.9734 15.0228 47.6448 15.0274 47.4003 15.2037L36.8008 22.8452V40.4218H59.4967Z" fill="#F0F9FF"/>
<g style="mix-blend-mode:multiply">
<path d="M53.1834 28.4766H43.1152V40.4218H53.1834V28.4766Z" fill="#4FA0B9"/>
</g>
<g style="mix-blend-mode:lighten" opacity="0.5">
<path d="M48.064 28.4766H43.1152V40.4218H48.064V28.4766Z" fill="#62B3CB"/>
</g>
<path opacity="0.3" d="M41.1523 19.7742L59.4968 26.2588V22.8458L47.8929 14.9961L41.1523 19.7742Z" fill="#C7F2FF"/>
<path d="M35.6289 41.0195H60.8491" stroke="#126581" stroke-width="3.75429" stroke-linecap="round"/>
<path d="M35.6914 22.6958L47.483 14.3675C47.729 14.1937 48.0574 14.1921 48.3051 14.3635L60.3498 22.6958" stroke="#126581" stroke-width="3.75429" stroke-linecap="round"/>
</svg>
