<svg width="84" height="84" viewBox="0 0 84 84" fill="none" xmlns="http://www.w3.org/2000/svg">
<g clip-path="url(#clip0_2343_173)">
<g clip-path="url(#clip1_2343_173)">
<path d="M77.7139 5.88897C69.8619 -1.96299 57.126 -1.96299 49.2741 5.88897L6.45928 48.7038C-1.39268 56.5557 -1.39268 69.2916 6.45928 77.1436C14.3112 84.9956 27.0471 84.9956 34.8991 77.1436L77.7139 34.3288C85.5659 26.4768 85.5659 13.7409 77.7139 5.88897Z" fill="#4A9CB9"/>
<path d="M57.9041 42.1717L41.4277 25.6953L26.2669 40.8561L42.7433 57.3325L57.9041 42.1717Z" fill="#136781"/>
<path d="M60.3379 26.4441C61.08 25.7131 61.091 24.5282 60.3601 23.7862C59.6292 23.0441 58.4442 23.0331 57.7022 23.764C56.9602 24.4949 56.9491 25.6799 57.68 26.4219C58.4109 27.1639 59.5959 27.175 60.3379 26.4441Z" fill="#136781"/>
<path d="M53.9258 19.9441C54.6678 19.2131 54.6789 18.0282 53.948 17.2862C53.2171 16.5441 52.0321 16.5331 51.2901 17.264C50.5481 17.9949 50.537 19.1799 51.2679 19.9219C51.9988 20.6639 53.1838 20.675 53.9258 19.9441Z" fill="#136781"/>
<path d="M66.7501 32.9558C67.4921 32.2249 67.5031 31.0399 66.7722 30.2979C66.0413 29.5559 64.8563 29.5448 64.1143 30.2757C63.3723 31.0067 63.3612 32.1916 64.0921 32.9336C64.8231 33.6757 66.008 33.6867 66.7501 32.9558Z" fill="#136781"/>
<path d="M66.9493 19.9324C67.6913 19.2014 67.7024 18.0164 66.9714 17.2744C66.2405 16.5324 65.0555 16.5214 64.3135 17.2523C63.5715 17.9832 63.5604 19.1682 64.2913 19.9102C65.0223 20.6522 66.2073 20.6633 66.9493 19.9324Z" fill="#136781"/>
<path d="M60.5372 13.4206C61.2792 12.6897 61.2902 11.5047 60.5593 10.7627C59.8284 10.0207 58.6434 10.0096 57.9014 10.7406C57.1594 11.4715 57.1483 12.6565 57.8792 13.3985C58.6102 14.1405 59.7952 14.1516 60.5372 13.4206Z" fill="#136781"/>
<path d="M73.3614 26.4324C74.1034 25.7014 74.1145 24.5164 73.3835 23.7744C72.6526 23.0324 71.4676 23.0214 70.7256 23.7523C69.9836 24.4832 69.9725 25.6682 70.7035 26.4102C71.4344 27.1522 72.6194 27.1633 73.3614 26.4324Z" fill="#136781"/>
<path d="M19.8594 65.78C20.6014 65.0491 20.6125 63.8641 19.8816 63.1221C19.1506 62.3801 17.9657 62.369 17.2237 63.0999C16.4816 63.8309 16.4706 65.0159 17.2015 65.7579C17.9324 66.4999 19.1174 66.5109 19.8594 65.78Z" fill="#136781"/>
<path d="M13.4473 59.2683C14.1893 58.5374 14.2004 57.3524 13.4695 56.6104C12.7385 55.8684 11.5535 55.8573 10.8115 56.5882C10.0695 57.3192 10.0585 58.5041 10.7894 59.2462C11.5203 59.9882 12.7053 59.9992 13.4473 59.2683Z" fill="#136781"/>
<path d="M26.2715 72.28C27.0135 71.5491 27.0246 70.3641 26.2937 69.6221C25.5628 68.8801 24.3778 68.869 23.6358 69.5999C22.8938 70.3309 22.8827 71.5159 23.6136 72.2579C24.3445 72.9999 25.5295 73.0109 26.2715 72.28Z" fill="#136781"/>
<path d="M26.4708 59.2566C27.2128 58.5256 27.2238 57.3407 26.4929 56.5987C25.762 55.8566 24.577 55.8456 23.835 56.5765C23.093 57.3074 23.0819 58.4924 23.8128 59.2344C24.5438 59.9764 25.7288 59.9875 26.4708 59.2566Z" fill="#136781"/>
<path d="M20.0586 52.7566C20.8007 52.0256 20.8117 50.8407 20.0808 50.0987C19.3499 49.3566 18.1649 49.3456 17.4229 50.0765C16.6809 50.8074 16.6698 51.9924 17.4007 52.7344C18.1317 53.4764 19.3166 53.4875 20.0586 52.7566Z" fill="#136781"/>
<path d="M32.8829 65.7605C33.6249 65.0296 33.6359 63.8446 32.905 63.1026C32.1741 62.3606 30.9891 62.3495 30.2471 63.0804C29.5051 63.8113 29.494 64.9963 30.2249 65.7383C30.9559 66.4803 32.1409 66.4914 32.8829 65.7605Z" fill="#136781"/>
</g>
<path d="M77.7139 77.1436C69.8619 84.9956 57.126 84.9956 49.2741 77.1436L6.45928 34.3288C-1.39268 26.4658 -1.39268 13.7409 6.45928 5.88897C14.3112 -1.96299 27.0471 -1.96299 34.8991 5.88897L77.7139 48.7038C85.5659 56.5557 85.5659 69.2916 77.7139 77.1436Z" fill="#9DCBDC"/>
<path d="M42.744 25.6955L26.2676 42.1719L41.4284 57.3327L57.9048 40.8563L42.744 25.6955Z" fill="#4A9CB9"/>
<path d="M60.3379 56.5765C61.08 57.3074 61.091 58.4924 60.3601 59.2344C59.6292 59.9764 58.4442 59.9875 57.7022 59.2566C56.9602 58.5256 56.9491 57.3407 57.68 56.5987C58.4109 55.8566 59.5959 55.8456 60.3379 56.5765Z" fill="#4A9CB9"/>
<path d="M53.9258 63.0804C54.6678 63.8113 54.6789 64.9963 53.948 65.7383C53.2171 66.4803 52.0321 66.4914 51.2901 65.7605C50.5481 65.0296 50.537 63.8446 51.2679 63.1026C51.9988 62.3606 53.1838 62.3495 53.9258 63.0804Z" fill="#4A9CB9"/>
<path d="M66.7501 50.0765C67.4921 50.8074 67.5031 51.9924 66.7722 52.7344C66.0413 53.4764 64.8563 53.4875 64.1143 52.7566C63.3723 52.0256 63.3612 50.8407 64.0921 50.0987C64.8231 49.3566 66.008 49.3456 66.7501 50.0765Z" fill="#4A9CB9"/>
<path d="M66.9493 63.0999C67.6913 63.8309 67.7024 65.0159 66.9714 65.7579C66.2405 66.4999 65.0555 66.5109 64.3135 65.78C63.5715 65.0491 63.5604 63.8641 64.2913 63.1221C65.0223 62.3801 66.2073 62.369 66.9493 63.0999Z" fill="#4A9CB9"/>
<path d="M60.5372 69.6038C61.2792 70.3348 61.2902 71.5198 60.5593 72.2618C59.8284 73.0038 58.6434 73.0149 57.9014 72.2839C57.1594 71.553 57.1483 70.368 57.8792 69.626C58.6102 68.884 59.7952 68.8729 60.5372 69.6038Z" fill="#4A9CB9"/>
<path d="M73.3614 56.5999C74.1034 57.3309 74.1145 58.5159 73.3835 59.2579C72.6526 59.9999 71.4676 60.0109 70.7256 59.28C69.9836 58.5491 69.9725 57.3641 70.7035 56.6221C71.4344 55.8801 72.6194 55.869 73.3614 56.5999Z" fill="#4A9CB9"/>
<path d="M19.8594 17.2523C20.6014 17.9832 20.6125 19.1682 19.8816 19.9102C19.1506 20.6522 17.9657 20.6633 17.2237 19.9324C16.4816 19.2014 16.4706 18.0164 17.2015 17.2744C17.9324 16.5324 19.1174 16.5214 19.8594 17.2523Z" fill="#4A9CB9"/>
<path d="M13.4473 23.7523C14.1893 24.4832 14.2004 25.6682 13.4695 26.4102C12.7385 27.1522 11.5535 27.1633 10.8115 26.4324C10.0695 25.7014 10.0585 24.5164 10.7894 23.7744C11.5203 23.0324 12.7053 23.0214 13.4473 23.7523Z" fill="#4A9CB9"/>
<path d="M26.2715 10.7523C27.0135 11.4832 27.0246 12.6682 26.2937 13.4102C25.5628 14.1522 24.3778 14.1633 23.6358 13.4324C22.8938 12.7014 22.8827 11.5164 23.6136 10.7744C24.3445 10.0324 25.5295 10.0214 26.2715 10.7523Z" fill="#4A9CB9"/>
<path d="M26.4708 23.7757C27.2128 24.5067 27.2238 25.6916 26.4929 26.4337C25.762 27.1757 24.577 27.1867 23.835 26.4558C23.093 25.7249 23.0819 24.5399 23.8128 23.7979C24.5438 23.0559 25.7288 23.0448 26.4708 23.7757Z" fill="#4A9CB9"/>
<path d="M20.0586 30.2757C20.8007 31.0067 20.8117 32.1916 20.0808 32.9336C19.3499 33.6757 18.1649 33.6867 17.4229 32.9558C16.6809 32.2249 16.6698 31.0399 17.4007 30.2979C18.1317 29.5559 19.3166 29.5448 20.0586 30.2757Z" fill="#4A9CB9"/>
<path d="M32.8829 17.264C33.6249 17.9949 33.6359 19.1799 32.905 19.9219C32.1741 20.6639 30.9891 20.675 30.2471 19.9441C29.5051 19.2131 29.494 18.0282 30.2249 17.2862C30.9559 16.5441 32.1409 16.5331 32.8829 17.264Z" fill="#4A9CB9"/>
</g>
<defs>
<clipPath id="clip0_2343_173">
<rect width="83.027" height="83.027" fill="white" transform="translate(0.568359)"/>
</clipPath>
<clipPath id="clip1_2343_173">
<rect width="83.027" height="83.027" fill="white" transform="translate(0.568359)"/>
</clipPath>
</defs>
</svg>
