<svg width="48" height="48" viewBox="0 0 48 48" fill="none" xmlns="http://www.w3.org/2000/svg">
<rect width="48" height="48" rx="24" fill="#096F90"/>
<path d="M35.1294 31.7537V35.7725C35.1294 38.1056 33.5067 39.9956 31.5037 39.9956H17.3662C17.6485 39.9956 17.9457 39.9541 18.2459 39.8676C19.7675 39.4106 20.8909 37.801 20.8909 35.8902V31.7537H35.1294Z" fill="#4A9CB9"/>
<path d="M13.8442 11.8839V19.1843H7.42188V11.735C7.42188 10.7 7.78148 9.7654 8.36398 9.09039C8.9435 8.41885 9.74889 8 10.6345 8C10.6524 8 10.6642 8 10.6821 8.00346H10.7296C10.8039 8.00346 10.8812 8.00692 10.9495 8.01731C10.9674 8.01731 10.9793 8.01731 10.9941 8.02077C11.0833 8.03115 11.1724 8.045 11.2557 8.06577C11.2854 8.06923 11.3181 8.07962 11.3478 8.09C11.4132 8.10385 11.4815 8.12462 11.5469 8.15231C11.6034 8.16616 11.6658 8.19385 11.7252 8.21808C11.7549 8.22154 11.7817 8.23885 11.8055 8.25269C13.018 8.82385 13.8442 10.2708 13.8442 11.8735V11.8839Z" fill="#4A9CB9"/>
<path d="M31.3524 25.2145V31.7568H20.8912V35.8934C20.8912 37.8042 19.7678 39.4138 18.2462 39.8708C17.946 39.9573 17.6488 39.9988 17.3665 39.9988C15.4199 39.9988 13.8447 38.1607 13.8447 35.8934V11.884C13.8447 10.2813 13.0186 8.83435 11.806 8.26319C11.7852 8.24935 11.7585 8.23204 11.7258 8.22858C11.6693 8.19742 11.6099 8.17665 11.5474 8.16281C11.4821 8.13165 11.4137 8.11088 11.3483 8.1005C11.3186 8.09011 11.2859 8.07973 11.2562 8.07627C11.173 8.0555 11.0838 8.04165 10.9947 8.03127C10.9828 8.02781 10.9679 8.02781 10.9501 8.02781C10.9293 8.02434 10.9055 8.01742 10.8847 8.01742C10.8372 8.01396 10.7837 8.00704 10.7302 8.01396C10.7123 8.0105 10.7004 8.0105 10.6826 8.0105H27.584C29.6673 8.0105 31.3524 9.97321 31.3524 12.3998V17.7548" fill="#E1F7FE"/>
<path d="M22.4031 14.3037H20.4922V12.0779H18.2127V14.3037H16.3018V16.9587H18.2127V19.1879H20.4922V16.9587H22.4031V14.3037Z" fill="#136781"/>
<path d="M39.1442 25.7411C38.6509 26.9665 37.6077 27.6865 36.517 27.6865C36.1039 27.6865 35.6849 27.5826 35.2867 27.3645L31.6015 25.3499L27.9193 23.3353C26.469 22.5426 25.8449 20.528 26.5254 18.8387C27.0188 17.6133 28.0649 16.8933 29.1556 16.8933C29.5687 16.8933 29.9877 16.9972 30.386 17.2152L34.0682 19.2299L37.7534 21.2445C39.2037 22.0372 39.8278 24.0518 39.1442 25.7411Z" fill="#136781"/>
<path d="M39.1443 25.7409C38.651 26.9663 37.6078 27.6863 36.5171 27.6863C36.104 27.6863 35.685 27.5825 35.2868 27.3644L31.6016 25.3498L34.0683 19.2297L37.7534 21.2444C39.2037 22.0371 39.8279 24.0517 39.1443 25.7409Z" fill="#4A9CB9"/>
<path opacity="0.5" d="M23.8861 21.8809H16.3018V23.3105H23.8861V21.8809Z" fill="#4A9CB9"/>
<path opacity="0.5" d="M23.8861 24.5154H16.3018V25.945H23.8861V24.5154Z" fill="#4A9CB9"/>
<path opacity="0.5" d="M23.8861 27.1526H16.3018V28.5822H23.8861V27.1526Z" fill="#4A9CB9"/>
</svg>
