<svg width="48" height="48" viewBox="0 0 48 48" fill="none" xmlns="http://www.w3.org/2000/svg">
<rect width="48" height="48" rx="24" fill="#096F90"/>
<path fill-rule="evenodd" clip-rule="evenodd" d="M23.7695 8.4978C30.4331 8.4978 35.3714 13.9189 35.8311 20.5664C36.0591 23.8633 35.2568 25.7543 33.6347 28.7388C30.7694 34.0102 23.7471 40.4978 23.7471 40.4978C23.7471 40.4978 16.2347 34.0971 13.8223 28.5227C12.5455 25.5722 11.5012 23.7748 11.7078 20.5664C12.1361 13.9168 17.1132 8.4978 23.7695 8.4978Z" fill="#E1F7FE"/>
<path d="M33.5048 21.3383C33.5949 15.9601 29.3106 11.5272 23.9355 11.4371C18.5605 11.347 14.1301 15.6338 14.04 21.012C13.95 26.3901 18.2343 30.8231 23.6094 30.9132C28.9844 31.0033 33.4148 26.7165 33.5048 21.3383Z" fill="#096F90"/>
<path d="M28.3136 26.0551V19.0964L23.8502 16.0665C23.7514 15.9994 23.6213 16.0013 23.5245 16.0711L19.3281 19.0964V26.0551H28.3136Z" fill="#E1F7FE"/>
<path d="M28.3136 26.0551V19.0964L23.8502 16.0665C23.7514 15.9994 23.6213 16.0013 23.5245 16.0711L19.3281 19.0964V26.0551H28.3136Z" stroke="#E1F7FE"/>
<g style="mix-blend-mode:multiply">
<path d="M21.8767 26.0066V21.3745H25.7656V26.0066H21.8767Z" fill="#4FA0B9"/>
<path d="M21.8767 26.0066V21.3745H25.7656V26.0066H21.8767Z" stroke="#3DA1C2" stroke-width="0.0970623"/>
</g>
<g style="mix-blend-mode:lighten" opacity="0.5">
<path d="M21.8767 26.0066V21.3745H23.7388V26.0066H21.8767Z" fill="#62B3CB"/>
<path d="M21.8767 26.0066V21.3745H23.7388V26.0066H21.8767Z" stroke="#3DA1C2" stroke-width="0.0970623"/>
</g>
<g style="mix-blend-mode:plus-darker" opacity="0.3">
<path d="M21.0508 17.8805L28.3135 20.4477V19.0965L23.7194 15.9888L21.0508 17.8805Z" fill="#C7F2FF"/>
</g>
<path d="M18.8643 26.2922H28.8491" stroke="#B3E8F9" stroke-width="1.33333" stroke-linecap="round"/>
<path d="M18.8877 19.0373L23.556 15.74C23.6535 15.6712 23.7835 15.6706 23.8815 15.7385L28.6501 19.0373" stroke="#B3E8F9" stroke-width="1.33333" stroke-linecap="round"/>
</svg>
