<svg width="48" height="48" viewBox="0 0 48 48" fill="none" xmlns="http://www.w3.org/2000/svg">
<rect y="-0.0100098" width="48" height="48" rx="24" fill="#096F90"/>
<path d="M36.7515 19.2739V22.8731H10.0879V19.2739C10.0879 17.1673 11.7465 15.4459 13.8287 15.3466C13.8918 15.3436 13.9549 15.3406 14.018 15.3406H18.0894V20.1586H28.75V15.3406H32.8244C32.8875 15.3406 32.9506 15.3406 33.0107 15.3466C35.093 15.4429 36.7515 17.1673 36.7515 19.2739Z" fill="#B3E8F9"/>
<path d="M34.818 22.8733H12.0244V34.9801H34.818V22.8733Z" fill="white"/>
<path d="M28.7773 26.4634H26.7822V28.4616H28.7773V26.4634Z" fill="#3B8DA6"/>
<path d="M31.6748 26.4634H29.6797V28.4616H31.6748V26.4634Z" fill="#3B8DA6"/>
<path d="M28.7773 29.2712H26.7822V31.2695H28.7773V29.2712Z" fill="#3B8DA6"/>
<path d="M31.6748 29.2712H29.6797V31.2695H31.6748V29.2712Z" fill="#3B8DA6"/>
<g style="mix-blend-mode:multiply">
<path d="M23.3025 25.5603H15.0967V34.9797H23.3025V25.5603Z" fill="#4FA0B9"/>
</g>
<g style="mix-blend-mode:darken" opacity="0.38">
<path d="M19.1981 25.5603H15.0967V34.9797H19.1981V25.5603Z" fill="#0C4E64"/>
</g>
<path d="M14.431 15.3403V22.8729H13.8301V15.3464C13.8932 15.3433 13.9563 15.3403 14.0194 15.3403H14.431Z" fill="#88C5D7"/>
<path d="M33.0121 15.3464V22.8729H32.4111V15.3403H32.8258C32.8889 15.3403 32.952 15.3403 33.0121 15.3464Z" fill="#88C5D7"/>
<path d="M18.6918 20.5437V22.8729H18.0908V20.5437C18.0908 20.3872 18.1359 20.2487 18.202 20.1585C18.2531 20.0893 18.3192 20.0471 18.3913 20.0471C18.4634 20.0471 18.5295 20.0893 18.5806 20.1585C18.6467 20.2487 18.6918 20.3872 18.6918 20.5437Z" fill="#88C5D7"/>
<path d="M28.7513 20.501V22.8724H28.1504V20.501C28.1504 20.3686 28.1804 20.2482 28.2315 20.158C28.2886 20.0617 28.3637 20.0015 28.4509 20.0015C28.538 20.0015 28.6131 20.0617 28.6702 20.158C28.7213 20.2482 28.7513 20.3686 28.7513 20.501Z" fill="#88C5D7"/>
<path d="M23.7211 20.5013V22.8727H23.1201V20.5013C23.1201 20.3689 23.1502 20.2485 23.2012 20.1582C23.2583 20.0619 23.3335 20.0017 23.4206 20.0017C23.5077 20.0017 23.5828 20.0619 23.6399 20.1582C23.691 20.2485 23.7211 20.3689 23.7211 20.5013Z" fill="#88C5D7"/>
<path d="M28.7495 10.667H18.0889V20.1617H28.7495V10.667Z" fill="#E1F7FE"/>
<path d="M25.8807 14.4921H24.3393V12.9482H22.5004V14.4921H20.959V16.3338H22.5004V17.8776H24.3393V16.3338H25.8807V14.4921Z" fill="#096F90"/>
<path d="M35.1831 38.119H11.6563C10.791 38.119 10.0879 37.4178 10.0879 36.5511C10.0879 35.6844 10.791 34.9802 11.6563 34.9802H35.1861C36.0515 34.9802 36.7546 35.6844 36.7546 36.5511C36.7546 37.4178 36.0515 38.122 35.1861 38.122L35.1831 38.119Z" fill="#B3E8F9"/>
<path opacity="0.3" d="M12.0244 22.8733L34.818 25.2447V22.8733H12.0244Z" fill="#C7F2FF"/>
</svg>
