<svg width="48" height="49" viewBox="0 0 48 49" fill="none" xmlns="http://www.w3.org/2000/svg">
<rect y="0.5" width="48" height="48" rx="24" fill="#096F90"/>
<g clip-path="url(#clip0_2082_41004)">
<path d="M37.7315 10.7702C34.7055 7.74424 29.7974 7.74424 26.7714 10.7702L10.2714 27.2702C7.24546 30.2961 7.24546 35.2043 10.2714 38.2303C13.2974 41.2563 18.2056 41.2563 21.2316 38.2303L37.7315 21.7303C40.7575 18.7044 40.7575 13.7962 37.7315 10.7702Z" fill="#B3E8F9"/>
<path d="M30.0977 24.7535L23.748 18.4038L17.9054 24.2465L24.2551 30.5961L30.0977 24.7535Z" fill="#3DA1C2"/>
<path d="M31.0347 18.6917C31.3206 18.41 31.3249 17.9533 31.0432 17.6674C30.7615 17.3814 30.3049 17.3771 30.0189 17.6588C29.733 17.9405 29.7287 18.3972 30.0104 18.6831C30.2921 18.9691 30.7487 18.9733 31.0347 18.6917Z" fill="#3DA1C2"/>
<path d="M28.563 16.1865C28.849 15.9049 28.8532 15.4482 28.5715 15.1622C28.2899 14.8763 27.8332 14.872 27.5472 15.1537C27.2613 15.4354 27.257 15.892 27.5387 16.178C27.8204 16.464 28.2771 16.4682 28.563 16.1865Z" fill="#3DA1C2"/>
<path d="M33.5054 21.2014C33.7913 20.9197 33.7956 20.4631 33.5139 20.1771C33.2322 19.8912 32.7756 19.8869 32.4896 20.1686C32.2037 20.4503 32.1994 20.9069 32.4811 21.1929C32.7628 21.4788 33.2194 21.4831 33.5054 21.2014Z" fill="#3DA1C2"/>
<path d="M33.5825 16.1819C33.8685 15.9002 33.8728 15.4435 33.5911 15.1576C33.3094 14.8716 32.8527 14.8674 32.5668 15.1491C32.2808 15.4307 32.2765 15.8874 32.5582 16.1734C32.8399 16.4593 33.2966 16.4636 33.5825 16.1819Z" fill="#3DA1C2"/>
<path d="M31.1109 13.6724C31.3968 13.3907 31.4011 12.934 31.1194 12.6481C30.8377 12.3621 30.381 12.3578 30.0951 12.6395C29.8091 12.9212 29.8049 13.3779 30.0866 13.6638C30.3682 13.9498 30.8249 13.9541 31.1109 13.6724Z" fill="#3DA1C2"/>
<path d="M36.0532 18.6873C36.3392 18.4056 36.3435 17.9489 36.0618 17.663C35.7801 17.377 35.3234 17.3727 35.0375 17.6544C34.7515 17.9361 34.7473 18.3928 35.0289 18.6787C35.3106 18.9647 35.7673 18.969 36.0532 18.6873Z" fill="#3DA1C2"/>
<path d="M15.4351 33.8516C15.721 33.5699 15.7253 33.1132 15.4436 32.8273C15.1619 32.5413 14.7053 32.537 14.4193 32.8187C14.1334 33.1004 14.1291 33.5571 14.4108 33.843C14.6925 34.129 15.1491 34.1333 15.4351 33.8516Z" fill="#3DA1C2"/>
<path d="M12.9634 31.3421C13.2494 31.0604 13.2536 30.6037 12.9719 30.3177C12.6903 30.0318 12.2336 30.0275 11.9476 30.3092C11.6617 30.5909 11.6574 31.0476 11.9391 31.3335C12.2208 31.6195 12.6774 31.6237 12.9634 31.3421Z" fill="#3DA1C2"/>
<path d="M17.9058 36.3567C18.1917 36.075 18.196 35.6183 17.9143 35.3324C17.6326 35.0464 17.176 35.0422 16.89 35.3239C16.6041 35.6055 16.5998 36.0622 16.8815 36.3482C17.1632 36.6341 17.6198 36.6384 17.9058 36.3567Z" fill="#3DA1C2"/>
<path d="M17.9839 31.3377C18.2699 31.056 18.2741 30.5993 17.9924 30.3134C17.7108 30.0274 17.2541 30.0231 16.9681 30.3048C16.6822 30.5865 16.6779 31.0432 16.9596 31.3291C17.2413 31.6151 17.698 31.6193 17.9839 31.3377Z" fill="#3DA1C2"/>
<path d="M15.5122 28.8325C15.7982 28.5508 15.8025 28.0942 15.5208 27.8082C15.2391 27.5223 14.7824 27.518 14.4965 27.7997C14.2105 28.0814 14.2062 28.538 14.4879 28.824C14.7696 29.11 15.2263 29.1142 15.5122 28.8325Z" fill="#3DA1C2"/>
<path d="M20.4546 33.8433C20.7406 33.5616 20.7448 33.1049 20.4631 32.819C20.1815 32.533 19.7248 32.5287 19.4388 32.8104C19.1529 33.0921 19.1486 33.5488 19.4303 33.8347C19.712 34.1207 20.1687 34.125 20.4546 33.8433Z" fill="#3DA1C2"/>
</g>
<path d="M37.7295 38.2303C34.7036 41.2563 29.7954 41.2563 26.7694 38.2303L10.2695 21.7303C7.2435 18.7001 7.2435 13.7962 10.2695 10.7702C13.2955 7.74424 18.2036 7.74424 21.2296 10.7702L37.7295 27.2702C40.7555 30.2961 40.7555 35.2043 37.7295 38.2303Z" fill="#E1F7FE"/>
<path d="M24.253 18.404L17.9033 24.7537L23.746 30.5963L30.0956 24.2467L24.253 18.404Z" fill="#4A9CB9"/>
<path d="M31.0347 30.3043C31.3206 30.586 31.3249 31.0427 31.0432 31.3286C30.7615 31.6146 30.3049 31.6189 30.0189 31.3372C29.733 31.0555 29.7287 30.5988 30.0104 30.3129C30.2921 30.0269 30.7487 30.0226 31.0347 30.3043Z" fill="#4A9CB9"/>
<path d="M28.563 32.8095C28.849 33.0911 28.8532 33.5478 28.5715 33.8338C28.2899 34.1197 27.8332 34.124 27.5472 33.8423C27.2613 33.5606 27.257 33.1039 27.5387 32.818C27.8204 32.532 28.2771 32.5278 28.563 32.8095Z" fill="#4A9CB9"/>
<path d="M33.5044 27.7985C33.7904 28.0802 33.7946 28.5368 33.513 28.8228C33.2313 29.1087 32.7746 29.113 32.4886 28.8313C32.2027 28.5496 32.1984 28.093 32.4801 27.807C32.7618 27.5211 33.2185 27.5168 33.5044 27.7985Z" fill="#4A9CB9"/>
<path d="M33.5825 32.8185C33.8685 33.1002 33.8728 33.5568 33.5911 33.8428C33.3094 34.1288 32.8527 34.133 32.5668 33.8513C32.2808 33.5696 32.2765 33.113 32.5582 32.827C32.8399 32.5411 33.2966 32.5368 33.5825 32.8185Z" fill="#4A9CB9"/>
<path d="M31.1109 35.3234C31.3968 35.6051 31.4011 36.0617 31.1194 36.3477C30.8377 36.6336 30.381 36.6379 30.0951 36.3562C29.8091 36.0745 29.8049 35.6179 30.0866 35.3319C30.3682 35.046 30.8249 35.0417 31.1109 35.3234Z" fill="#4A9CB9"/>
<path d="M36.0523 30.3126C36.3382 30.5943 36.3425 31.051 36.0608 31.3369C35.7791 31.6229 35.3224 31.6272 35.0365 31.3455C34.7505 31.0638 34.7463 30.6071 35.028 30.3212C35.3096 30.0352 35.7663 30.0309 36.0523 30.3126Z" fill="#4A9CB9"/>
<path d="M15.437 15.1491C15.723 15.4307 15.7273 15.8874 15.4456 16.1734C15.1639 16.4593 14.7072 16.4636 14.4213 16.1819C14.1353 15.9002 14.131 15.4435 14.4127 15.1576C14.6944 14.8716 15.1511 14.8674 15.437 15.1491Z" fill="#4A9CB9"/>
<path d="M12.9654 17.6542C13.2513 17.9359 13.2556 18.3925 12.9739 18.6785C12.6922 18.9644 12.2355 18.9687 11.9496 18.687C11.6636 18.4053 11.6594 17.9487 11.941 17.6627C12.2227 17.3768 12.6794 17.3725 12.9654 17.6542Z" fill="#4A9CB9"/>
<path d="M17.9068 12.6434C18.1927 12.9251 18.197 13.3818 17.9153 13.6677C17.6336 13.9537 17.1769 13.958 16.891 13.6763C16.605 13.3946 16.6008 12.9379 16.8825 12.652C17.1641 12.366 17.6208 12.3618 17.9068 12.6434Z" fill="#4A9CB9"/>
<path d="M17.9839 17.6625C18.2699 17.9442 18.2741 18.4008 17.9924 18.6868C17.7108 18.9727 17.2541 18.977 16.9681 18.6953C16.6822 18.4136 16.6779 17.957 16.9596 17.671C17.2413 17.3851 17.698 17.3808 17.9839 17.6625Z" fill="#4A9CB9"/>
<path d="M15.5122 20.1676C15.7982 20.4493 15.8025 20.906 15.5208 21.1919C15.2391 21.4779 14.7824 21.4821 14.4965 21.2005C14.2105 20.9188 14.2062 20.4621 14.4879 20.1761C14.7696 19.8902 15.2263 19.8859 15.5122 20.1676Z" fill="#4A9CB9"/>
<path d="M20.4536 15.153C20.7396 15.4346 20.7439 15.8913 20.4622 16.1773C20.1805 16.4632 19.7238 16.4675 19.4379 16.1858C19.1519 15.9041 19.1476 15.4474 19.4293 15.1615C19.711 14.8755 20.1677 14.8713 20.4536 15.153Z" fill="#4A9CB9"/>
<defs>
<clipPath id="clip0_2082_41004">
<rect width="31.9969" height="31.9969" fill="white" transform="translate(8 8.5)"/>
</clipPath>
</defs>
</svg>
