<svg width="60" height="59" viewBox="0 0 60 59" fill="none" xmlns="http://www.w3.org/2000/svg">
<circle cx="30.0001" cy="29.7501" r="29.2501" fill="#418779" style="fill:#418779;fill:color(display-p3 0.2549 0.5294 0.4745);fill-opacity:1;"/>
<path fill-rule="evenodd" clip-rule="evenodd" d="M22.5002 34.4208V43.5C22.5002 44.3285 23.1717 45 24.0002 45H29.405V38.6414C29.405 37.9389 28.8769 37.3629 28.3366 36.914C27.7742 36.4469 27.4162 35.7423 27.4162 34.9542C27.4162 33.5477 28.5563 32.4075 29.9627 32.4075C30.0479 32.4075 30.1321 32.4117 30.215 32.4198C31.2817 32.5248 32.888 32.5248 33.9548 32.4198C34.0378 32.4117 34.1219 32.4075 34.207 32.4075C35.6135 32.4075 36.7537 33.5477 36.7537 34.9542C36.7537 35.7416 36.3964 36.4454 35.8351 36.9125C35.296 37.3613 34.7692 37.9368 34.7692 38.6382V45H40.5001C41.3285 45 42.0001 44.3285 42.0001 43.5V22.9965C42.0001 22.4356 41.6873 21.9217 41.1892 21.6641L23.9278 12.7383C23.1558 12.3391 22.2071 12.6776 21.8621 13.4753L19.8863 18.0434L20.1751 18.2233L25.6812 21.4022C26.2896 21.7534 27.0526 21.5841 27.7114 21.3406C28.3972 21.0871 29.1863 21.1293 29.869 21.5234C31.087 22.2266 31.5043 23.7841 30.8011 25.0022C30.7585 25.0759 30.7127 25.1467 30.6643 25.2144C30.04 26.0858 29.2369 27.4769 28.7944 28.4532C28.7599 28.5291 28.7215 28.6041 28.6789 28.6778C27.9757 29.8958 26.4182 30.3132 25.2002 29.6099C24.5183 29.2163 24.0874 28.5549 23.9635 27.8352C23.8445 27.144 23.6094 26.4 23.002 26.0493L17.738 23.0103L15.5376 28.0979C15.2323 28.8038 15.5103 29.6261 16.1812 30.002L21.7332 33.1121C22.2068 33.3774 22.5002 33.878 22.5002 34.4208ZM34.4999 25.5001L32.2501 29.25H37.5001L36.9499 27.0489C36.8255 26.5514 36.4555 26.1519 35.9689 25.9898L34.4999 25.5001Z" fill="#F3F3E9" style="fill:#F3F3E9;fill:color(display-p3 0.9529 0.9529 0.9137);fill-opacity:1;"/>
</svg>
