<svg width="60" height="59" viewBox="0 0 60 59" fill="none" xmlns="http://www.w3.org/2000/svg">
<circle cx="30.0001" cy="29.2501" r="29.2501" fill="#418779" style="fill:#418779;fill:color(display-p3 0.2549 0.5294 0.4745);fill-opacity:1;"/>
<path fill-rule="evenodd" clip-rule="evenodd" d="M23.981 35.461C22.5676 34.2832 21.5114 32.7339 20.9313 30.9879L20.8132 30.6322C20.6461 30.1292 20.2172 29.7698 19.7307 29.5597C18.3983 28.9841 17.4014 27.7733 17.1314 26.2885L16.7761 24.3344C16.4195 22.3733 17.9261 20.5681 19.9193 20.5681H20.0483C20.1218 20.5681 20.1823 20.508 20.1833 20.4344C20.2549 15.0736 24.6228 10.75 30.0006 10.75C35.3349 10.75 39.6756 15.004 39.8152 20.3046C39.8191 20.4497 39.9364 20.5681 40.0816 20.5681C42.0748 20.5681 43.5814 22.3733 43.2247 24.3344L42.8695 26.2885C42.6112 27.7094 41.6871 28.8794 40.4404 29.4818C40.2624 29.5678 40.0777 29.6423 39.8874 29.7043C39.4161 29.8577 39.009 30.2036 38.8936 30.6857C38.4895 32.3749 37.6002 33.9244 36.3627 35.1366C36.2451 35.2517 36.1242 35.364 36.0004 35.473C35.9382 35.5278 35.8752 35.5817 35.8114 35.6348C34.1869 36.9886 32.1151 37.75 30.0006 37.75C27.8859 37.75 25.8381 37.0086 24.2136 35.6548L23.981 35.461ZM23.4214 24.9692C23.4214 24.3479 22.9178 23.8442 22.2964 23.8442C21.6751 23.8442 21.1714 24.3479 21.1714 24.9692V25.0346C21.1714 25.6559 21.6751 26.1596 22.2964 26.1596C22.9178 26.1596 23.4214 25.6559 23.4214 25.0346V24.9692ZM37.8721 23.8442C37.2508 23.8442 36.7471 24.3479 36.7471 24.9692V25.0346C36.7471 25.6559 37.2508 26.1596 37.8721 26.1596C38.4934 26.1596 38.9971 25.6559 38.9971 25.0346V24.9692C38.9971 24.3479 38.4934 23.8442 37.8721 23.8442ZM26.0717 25.5455C26.0717 24.9241 25.568 24.4205 24.9467 24.4205C24.3254 24.4205 23.8217 24.9241 23.8217 25.5455V25.611C23.8217 26.2323 24.3254 26.736 24.9467 26.736C25.568 26.736 26.0717 26.2323 26.0717 25.611V25.5455ZM35.2219 24.4205C34.6005 24.4205 34.0969 24.9241 34.0969 25.5455V25.611C34.0969 26.2323 34.6005 26.736 35.2219 26.736C35.8432 26.736 36.3469 26.2323 36.3469 25.611V25.5455C36.3469 24.9241 35.8432 24.4205 35.2219 24.4205ZM28.722 24.8931C28.722 24.2716 28.2183 23.768 27.597 23.768C26.9757 23.768 26.472 24.2716 26.472 24.8931V24.9584C26.472 25.5797 26.9757 26.0834 27.597 26.0834C28.2183 26.0834 28.722 25.5797 28.722 24.9584V24.8931ZM32.5716 23.768C31.9503 23.768 31.4466 24.2716 31.4466 24.8931V24.9584C31.4466 25.5797 31.9503 26.0834 32.5716 26.0834C33.1929 26.0834 33.6966 25.5797 33.6966 24.9584V24.8931C33.6966 24.2716 33.1929 23.768 32.5716 23.768ZM28.4752 32.2165C28.4752 32.8378 27.9715 33.3415 27.3502 33.3415C26.7288 33.3415 26.2252 32.8378 26.2252 32.2165V32.1509C26.2252 31.5296 26.7288 31.0259 27.3502 31.0259C27.9715 31.0259 28.4752 31.5296 28.4752 32.1509V32.2165ZM32.6506 33.3415C33.2721 33.3415 33.7756 32.8378 33.7756 32.2165V32.1509C33.7756 31.5296 33.2721 31.0259 32.6506 31.0259C32.0293 31.0259 31.5256 31.5296 31.5256 32.1509V32.2165C31.5256 32.8378 32.0293 33.3415 32.6506 33.3415ZM31.1254 30.9762C31.1254 31.5975 30.6217 32.1012 30.0004 32.1012C29.3791 32.1012 28.8754 31.5975 28.8754 30.9762V30.9106C28.8754 30.2893 29.3791 29.7856 30.0004 29.7856C30.6217 29.7856 31.1254 30.2893 31.1254 30.9106V30.9762Z" fill="#F3F3E9" style="fill:#F3F3E9;fill:color(display-p3 0.9529 0.9529 0.9137);fill-opacity:1;"/>
<path d="M22.9743 39.5922C23.5542 39.399 23.9554 38.8749 23.9965 38.2718C25.7866 39.3959 27.8661 40.0004 30.0002 40.0004C32.1306 40.0004 34.2162 39.3852 36.0032 38.2676C36.0427 38.8724 36.4445 39.3986 37.0257 39.5922L44.4039 42.0516C44.7598 42.1703 45 42.5034 45 42.8787C45 43.3601 44.6097 43.7504 44.1283 43.7504H15.8717C15.3903 43.7504 15 43.3601 15 42.8787C15 42.5034 15.2401 42.1703 15.5961 42.0516L22.9743 39.5922Z" fill="#F3F3E9" style="fill:#F3F3E9;fill:color(display-p3 0.9529 0.9529 0.9137);fill-opacity:1;"/>
</svg>
