<svg width="36" height="37" viewBox="0 0 36 37" fill="none" xmlns="http://www.w3.org/2000/svg">
<path d="M18 36.2833C27.8183 36.2833 35.7777 28.3488 35.7777 18.5611C35.7777 8.77338 27.8183 0.838867 18 0.838867C8.18156 0.838867 0.222168 8.77338 0.222168 18.5611C0.222168 28.3488 8.18156 36.2833 18 36.2833Z" fill="#E7F9FF"/>
<path d="M26.5136 13.5439C25.9165 13.8009 25.2666 13.9859 24.5972 14.0579C25.2922 13.646 25.8126 12.9953 26.0609 12.2277C25.4087 12.6148 24.6943 12.8862 23.9492 13.0299C23.6379 12.6978 23.2612 12.4332 22.8429 12.2527C22.4245 12.0721 21.9734 11.9795 21.5176 11.9805C19.6733 11.9805 18.1901 13.4719 18.1901 15.3021C18.1901 15.5591 18.2213 15.8161 18.2721 16.0634C15.5105 15.9193 13.0476 14.6031 11.4102 12.5879C11.1119 13.0963 10.9555 13.6752 10.9575 14.2643C10.9575 15.417 11.5449 16.4333 12.4407 17.0311C11.9128 17.0103 11.3973 16.8655 10.936 16.6085V16.6494C10.936 18.2635 12.0796 19.6011 13.6038 19.9087C13.3177 19.9829 13.0232 20.0209 12.7276 20.0217C12.5109 20.0217 12.306 20.0003 12.0992 19.9711C12.5207 21.2872 13.7483 22.2432 15.21 22.2744C14.0664 23.1681 12.6339 23.6938 11.0785 23.6938C10.7994 23.6938 10.5418 23.684 10.2744 23.6529C11.7498 24.5972 13.5004 25.1423 15.3856 25.1423C21.5058 25.1423 24.8548 20.084 24.8548 15.6934C24.8548 15.5494 24.8548 15.4053 24.845 15.2612C25.493 14.7881 26.0609 14.202 26.5136 13.5439Z" fill="#096F90"/>
</svg>
