<svg width="60" height="59" viewBox="0 0 60 59" fill="none" xmlns="http://www.w3.org/2000/svg">
<circle cx="30.0001" cy="29.7501" r="29.2501" fill="#418779" style="fill:#418779;fill:color(display-p3 0.2549 0.5294 0.4745);fill-opacity:1;"/>
<path d="M16.3254 27.66C17.6192 28.5159 19.3051 27.942 20.1011 26.3692C20.172 26.2291 20.2335 26.0858 20.2857 25.9403C20.2377 25.911 20.1876 25.8841 20.1355 25.86L18.0226 24.8795C17.6144 24.6901 17.42 24.2192 17.5755 23.797C17.7536 23.3137 18.3122 23.0925 18.7728 23.3229L20.0597 23.9665L20.8376 24.3581C22.8113 25.3517 21.5813 28.3077 20.9516 29.8207C20.9003 29.9442 20.8529 30.058 20.8116 30.1605C19.4371 33.5673 20.8176 37.4061 23.8625 39.4654C24.0017 41.509 25.1734 43.2481 26.825 44.0944C27.7451 44.566 28.5449 45.439 28.5449 46.5258C28.5449 46.819 28.7682 47.0566 29.0436 47.0566H30.9638C31.2369 47.0566 31.4585 46.821 31.4585 46.5301C31.4585 45.4459 32.2608 44.577 33.1808 44.1112C34.8423 43.2705 36.0185 41.5198 36.1409 39.4645C39.1848 37.405 40.5648 33.5668 39.1905 30.1605C39.1491 30.058 39.1019 29.9442 39.0504 29.8207C38.4209 28.3077 37.1907 25.3517 39.1644 24.3581L40.0317 23.9215L41.2287 23.3229C41.6894 23.0925 42.248 23.3137 42.426 23.797C42.5816 24.2192 42.387 24.6901 41.9789 24.8795L39.866 25.86C39.8139 25.8841 39.7638 25.911 39.7158 25.9403C39.768 26.0858 39.8295 26.2291 39.9005 26.3692C40.6964 27.942 42.3824 28.5159 43.6761 27.66C43.6761 27.66 48.8256 25.2754 45.2207 18.1541C41.9987 11.7891 37.8699 14.6448 37.346 15.0071L37.3362 15.0139L37.3116 15.0303C36.0152 15.906 35.6129 17.8976 36.4131 19.4786C36.4386 19.5292 36.4652 19.5787 36.4926 19.6272L38.9582 18.2815C39.513 17.9787 40.2029 18.2981 40.3308 18.9171C40.4175 19.3365 40.2102 19.7615 39.8264 19.9514L37.8509 20.9283L37.8536 20.9296L37.2927 21.1988C33.5086 23.0152 34.0944 27.3009 35.3895 30.4875C36.701 33.4411 36.0554 34.2468 34.6679 35.6404L33.8447 35.3625C33.7121 35.3115 31.9098 34.8277 31.4468 34.7694C30.9839 34.711 30.4862 34.6776 29.9538 34.6776C29.4812 34.6776 29.0373 34.704 28.6217 34.7506C28.2059 34.7974 27.0105 34.9426 25.7165 35.5204L25.4152 35.7216C23.9722 34.2769 23.2759 33.498 24.6126 30.4875C25.9077 27.3009 26.4935 23.0152 22.7094 21.1988L22.1482 20.9294L22.1505 20.9283L20.1752 19.9514C19.7913 19.7615 19.584 19.3365 19.6707 18.9171C19.7987 18.2981 20.4884 17.9787 21.0433 18.2815L23.5089 19.6272C23.5363 19.5787 23.5628 19.5292 23.5884 19.4786C24.3886 17.8976 23.9862 15.906 22.6898 15.0303L22.6652 15.0139L22.6555 15.0071C22.1316 14.6448 18.0028 11.7891 14.7808 18.1541C11.1759 25.2754 16.3254 27.66 16.3254 27.66Z" fill="#F3F3E9" style="fill:#F3F3E9;fill:color(display-p3 0.9529 0.9529 0.9137);fill-opacity:1;"/>
</svg>
