<svg width="60" height="59" viewBox="0 0 60 59" fill="none" xmlns="http://www.w3.org/2000/svg">
<circle cx="30.0001" cy="29.7501" r="29.2501" fill="#418779" style="fill:#418779;fill:color(display-p3 0.2549 0.5294 0.4745);fill-opacity:1;"/>
<path fill-rule="evenodd" clip-rule="evenodd" d="M14.8833 23.46C14.6246 22.9996 14.7325 22.4445 15.2235 21.9485C15.4619 21.7077 15.7141 21.5737 15.8845 21.5296C15.9082 21.5235 15.9273 21.5196 15.9422 21.5171C17.1533 22.5861 18.0053 23.1009 18.937 23.1062C19.1503 23.1073 19.3333 23.0813 19.46 23.0611C19.5142 23.0524 19.5546 23.0455 19.588 23.0399C19.6476 23.0298 19.6848 23.0236 19.7381 23.0174C19.832 23.0066 19.9507 22.9996 20.1787 23.0623L20.8393 20.6617C20.2744 20.5063 19.832 20.5002 19.4523 20.5441C19.33 20.5582 19.1969 20.5806 19.1173 20.594L19.0675 20.6024C18.9832 20.6158 18.959 20.6163 18.951 20.6163L18.9473 20.6161C18.9473 20.6161 18.9406 20.6152 18.9282 20.6116C18.9025 20.6041 18.84 20.5823 18.7295 20.5208C18.4962 20.3907 18.1249 20.1268 17.5291 19.5967C16.825 18.9701 15.9423 18.9431 15.2619 19.1189C14.5821 19.2944 13.9492 19.6968 13.4542 20.1968C12.4785 21.1822 11.727 22.9258 12.7126 24.6797C13.2775 25.6846 13.9165 26.5185 14.4705 27.1504C14.4539 26.5964 14.6014 26.0983 14.9288 25.7382C15.2269 25.4103 15.6345 25.2402 16.0938 25.2166C15.6944 24.7324 15.266 24.1409 14.8833 23.46Z" fill="#F3F3E9" style="fill:#F3F3E9;fill:color(display-p3 0.9529 0.9529 0.9137);fill-opacity:1;"/>
<path d="M20.2766 27.3912C21.6986 28.7534 22.0953 30.6151 21.1624 31.5494C20.2296 32.4838 18.3205 32.137 16.8986 30.7748C15.4765 29.4126 15.0799 27.5509 16.0127 26.6165C16.9455 25.6822 18.8545 26.029 20.2766 27.3912Z" fill="#F3F3E9" style="fill:#F3F3E9;fill:color(display-p3 0.9529 0.9529 0.9137);fill-opacity:1;"/>
<path fill-rule="evenodd" clip-rule="evenodd" d="M45.1171 23.46C45.3758 22.9995 45.2679 22.4445 44.7767 21.9485C44.5385 21.7078 44.2861 21.5736 44.1159 21.5296C44.0922 21.5235 44.0731 21.5197 44.0582 21.5172C42.847 22.5862 41.995 23.1008 41.0634 23.1061C40.8501 23.1073 40.6671 23.0813 40.5403 23.061C40.4861 23.0524 40.4458 23.0456 40.4124 23.04C40.3528 23.0299 40.3156 23.0235 40.2623 23.0174C40.1684 23.0066 40.0495 22.9996 39.8216 23.0624L39.1611 20.6617C39.726 20.5063 40.1684 20.5002 40.5481 20.544C40.6704 20.5582 40.8033 20.5806 40.883 20.5941L40.9329 20.6023C41.0171 20.6158 41.0413 20.6163 41.0493 20.6162L41.0529 20.6161C41.0529 20.6161 41.0598 20.6151 41.0722 20.6115C41.0977 20.6041 41.1602 20.5824 41.2708 20.5207C41.5041 20.3908 41.8753 20.1268 42.4711 19.5966C43.1754 18.9702 44.058 18.9432 44.7385 19.1188C45.4183 19.2945 46.0512 19.6967 46.5462 20.1967C47.5218 21.1823 48.2734 22.9258 47.2876 24.6798C46.7229 25.6847 46.0838 26.5184 45.5299 27.1505C45.5465 26.5963 45.399 26.0984 45.0715 25.7382C44.7735 25.4103 44.3659 25.2402 43.9064 25.2165C44.3059 24.7323 44.7344 24.1409 45.1171 23.46Z" fill="#F3F3E9" style="fill:#F3F3E9;fill:color(display-p3 0.9529 0.9529 0.9137);fill-opacity:1;"/>
<path d="M39.7228 27.3912C38.3007 28.7533 37.9041 30.6151 38.8369 31.5494C39.7697 32.4837 41.6787 32.1369 43.1008 30.7748C44.5229 29.4126 44.9195 27.5508 43.9867 26.6165C43.0538 25.6822 41.1449 26.029 39.7228 27.3912Z" fill="#F3F3E9" style="fill:#F3F3E9;fill:color(display-p3 0.9529 0.9529 0.9137);fill-opacity:1;"/>
<path d="M29.9833 18.127C16.4953 18.127 21.5533 28.1394 24.9253 28.1394C27.7229 28.1394 26.1784 39.2425 27.9789 43.0255C28.3486 43.8023 29.3131 43.0255 29.9833 43.0255C30.6535 43.0255 31.3711 43.8023 31.7137 43.0255C33.3824 39.2425 31.6818 28.1394 34.4793 28.1394C37.8513 28.1394 43.4714 18.127 29.9833 18.127Z" fill="#F3F3E9" style="fill:#F3F3E9;fill:color(display-p3 0.9529 0.9529 0.9137);fill-opacity:1;"/>
</svg>
